<svg xmlns="http://www.w3.org/2000/svg" width="48.716" height="48.574" viewBox="0 0 48.716 48.574">
  <g id="articles" transform="translate(0)">
    <path id="Tracé_19" data-name="Tracé 19" d="M261.56,148.907l-5.305-5.307v5.307ZM272.6,161.293h0l1.157-1.034-5.433-5.447-1.031,1.13Zm-.986,1.123h0l-5.451-5.444-17.268,17.373,5.342,5.3Zm-5.39-7.534h0l2.1-2.087,7.594,7.463-2.19,2.133.028.025-.556.571-9.053,8.982v17.472H227.2V140.867h28.171l.1.071a.6.6,0,0,1,.471.219l1.555,1.559,6.649,6.192v7.943c.675-.652,1.329-1.363,2.015-2.039Zm-16.017,26.349h0l-2.86-2.856-.284,3.142Zm-2.86-5.158h0l6.153,6.336-8.182.839.853-8.206Zm15.2-2.517h0l-8.307,8.246-7.505-7.459q7.92-7.915,15.812-15.887v-7.967h-7.029a.788.788,0,0,1-.846-.7v-7.331H228.657V188h33.887Z" transform="translate(-227.201 -140.867)" fill="#fff" fill-rule="evenodd"/>
  </g>
</svg>
