<svg xmlns="http://www.w3.org/2000/svg" xmlns:xlink="http://www.w3.org/1999/xlink" width="111.185" height="107.006" viewBox="0 0 111.185 107.006">
  <defs>
    <filter id="Tracé_14" x="0" y="0" width="111.185" height="107.006" filterUnits="userSpaceOnUse">
      <feOffset dy="3" input="SourceAlpha"/>
      <feGaussianBlur stdDeviation="11" result="blur"/>
      <feFlood flood-opacity="0.161"/>
      <feComposite operator="in" in2="blur"/>
      <feComposite in="SourceGraphic"/>
    </filter>
  </defs>
  <g id="video" transform="translate(33.5 30.5)">
    <g id="Groupe_3" data-name="Groupe 3" transform="translate(0 0)">
      <ellipse id="Ellipse_20" data-name="Ellipse 20" cx="3.499" cy="2.916" rx="3.499" ry="2.916" transform="translate(11.662 35.385)" fill="none" stroke="#fff" stroke-miterlimit="10" stroke-width="1"/>
      <g transform="matrix(1, 0, 0, 1, -33.5, -30.5)" filter="url(#Tracé_14)">
        <path id="Tracé_14-2" data-name="Tracé 14" d="M314.672,277.423h-4.284a1.791,1.791,0,0,0,0,3.583h4.284a1.716,1.716,0,0,0,1.687-1.772V279.2A1.717,1.717,0,0,0,314.672,277.423ZM348.6,241h-37.02A3.582,3.582,0,0,0,308,244.583v23.884a3.582,3.582,0,0,0,3.583,3.583H348.6a3.582,3.582,0,0,0,3.583-3.583V244.583A3.582,3.582,0,0,0,348.6,241Zm-11.267,16.452-10.351,6.34a1.088,1.088,0,0,1-1.656-.928V250.186a1.088,1.088,0,0,1,1.656-.929l10.351,6.34A1.088,1.088,0,0,1,337.336,257.452ZM349.8,277.423h-17.42a1.717,1.717,0,0,0-1.687,1.772v.038a1.716,1.716,0,0,0,1.687,1.772H349.8a1.791,1.791,0,0,0,0-3.583Z" transform="translate(-274.5 -210.5)" fill="none" stroke="#fff" stroke-miterlimit="10" stroke-width="1"/>
      </g>
    </g>
  </g>
</svg>
