<svg xmlns="http://www.w3.org/2000/svg" width="2.961" height="2.953" viewBox="0 0 2.961 2.953">
  <path id="articles" d="M229.29,141.356l-.322-.323v.323Zm.671.753h0l.07-.063-.33-.331-.063.069Zm-.06.068h0l-.331-.331-1.05,1.056.325.322Zm-.328-.458h0l.128-.127.462.454-.133.13,0,0-.034.035-.55.546v1.062H227.2v-2.953h1.712l.006,0a.036.036,0,0,1,.029.013l.095.095.4.376v.483c.041-.04.081-.083.123-.124Zm-.974,1.6h0l-.174-.174-.017.191Zm-.174-.314h0l.374.385-.5.051.052-.5Zm.924-.153h0l-.5.5-.456-.453q.481-.481.961-.966v-.484h-.427a.048.048,0,0,1-.051-.043v-.446h-1.581v2.768h2.06Z" transform="translate(-227.201 -140.867)" fill="#fff" fill-rule="evenodd"/>
</svg>
