<svg xmlns="http://www.w3.org/2000/svg" xmlns:xlink="http://www.w3.org/1999/xlink" width="69.858" height="69.859" viewBox="0 0 69.858 69.859">
  <defs>
    <linearGradient id="linear-gradient" x1="-0.315" y1="0.5" x2="0.685" y2="0.5" gradientUnits="objectBoundingBox">
      <stop offset="0" stop-color="#f28f49"/>
      <stop offset="0.166" stop-color="#e3783c"/>
      <stop offset="0.535" stop-color="#c94d25"/>
      <stop offset="0.825" stop-color="#ba3519"/>
      <stop offset="1" stop-color="#b52d15"/>
    </linearGradient>
    <filter id="Ellipse_3-2" x="0" y="0" width="69.858" height="69.859" filterUnits="userSpaceOnUse">
      <feOffset dy="3" input="SourceAlpha"/>
      <feGaussianBlur stdDeviation="3" result="blur"/>
      <feFlood flood-opacity="0.161"/>
      <feComposite operator="in" in2="blur"/>
      <feComposite in="SourceGraphic"/>
    </filter>
    <filter id="Tracé_23-2" x="13.433" y="15.443" width="42.343" height="38.974" filterUnits="userSpaceOnUse">
      <feOffset dy="3" input="SourceAlpha"/>
      <feGaussianBlur stdDeviation="3" result="blur-2"/>
      <feFlood flood-opacity="0.161"/>
      <feComposite operator="in" in2="blur-2"/>
      <feComposite in="SourceGraphic"/>
    </filter>
  </defs>
  <g id="like" transform="translate(-172.071 -693.105)">
    <g id="Groupe_162" data-name="Groupe 162" transform="translate(181.071 699.105)">
      <g transform="matrix(1, 0, 0, 1, -9, -6)" filter="url(#Ellipse_3-2)">
        <ellipse id="Ellipse_3-2-2" data-name="Ellipse 3-2" cx="25.929" cy="25.929" rx="25.929" ry="25.929" transform="translate(9 6)" fill="url(#linear-gradient)"/>
      </g>
    </g>
    <path id="Tracé_249" data-name="Tracé 249" d="M784.858,955.852Z" transform="translate(-586.087 -236.346)" fill="none" stroke="#707070" stroke-width="1"/>
    <g id="Groupe_12" data-name="Groupe 12" transform="translate(194.504 714.547)">
      <g id="Groupe_15" data-name="Groupe 15" transform="translate(-0.001 0)">
        <g transform="matrix(1, 0, 0, 1, -22.43, -21.44)" filter="url(#Tracé_23-2)">
          <path id="Tracé_23-2-2" data-name="Tracé 23-2" d="M440.869,380.687a6.37,6.37,0,0,0-12.175-2.626,6.367,6.367,0,1,0-9.917,7.484l9.717,9.652a.306.306,0,0,0,.216.09.309.309,0,0,0,.218-.09l10.078-10.012h0a6.337,6.337,0,0,0,1.863-4.5Z" transform="translate(-394.09 -352.87)" fill="#fff"/>
        </g>
      </g>
    </g>
  </g>
</svg>
