<svg xmlns="http://www.w3.org/2000/svg" xmlns:xlink="http://www.w3.org/1999/xlink" width="100.379" height="97.269" viewBox="0 0 100.379 97.269">
  <defs>
    <filter id="Ellipse_3-2" x="7.077" y="5.971" width="86.226" height="86.227" filterUnits="userSpaceOnUse">
      <feOffset dy="3" input="SourceAlpha"/>
      <feGaussianBlur stdDeviation="3" result="blur"/>
      <feFlood flood-opacity="0.161"/>
      <feComposite operator="in" in2="blur"/>
      <feComposite in="SourceGraphic"/>
    </filter>
    <filter id="Tracé_14" x="0" y="0" width="100.379" height="97.269" filterUnits="userSpaceOnUse">
      <feOffset dy="3" input="SourceAlpha"/>
      <feGaussianBlur stdDeviation="11" result="blur-2"/>
      <feFlood flood-opacity="0.161"/>
      <feComposite operator="in" in2="blur-2"/>
      <feComposite in="SourceGraphic"/>
    </filter>
  </defs>
  <g id="menu_video" transform="translate(17.722 11.971)">
    <g id="Groupe_162" data-name="Groupe 162" transform="translate(-1.645 0)">
      <g transform="matrix(1, 0, 0, 1, -16.08, -11.97)" filter="url(#Ellipse_3-2)">
        <ellipse id="Ellipse_3-2-2" data-name="Ellipse 3-2" cx="34.113" cy="34.113" rx="34.113" ry="34.113" transform="translate(16.08 11.97)" fill="#dd8f93"/>
      </g>
    </g>
    <path id="Tracé_249" data-name="Tracé 249" d="M784.858,955.852Z" transform="translate(-761.57 -929.011)" fill="none" stroke="#707070" stroke-width="1"/>
    <g id="video" transform="translate(16.028 18.779)">
      <g id="Groupe_3" data-name="Groupe 3" transform="translate(0 0)">
        <ellipse id="Ellipse_20" data-name="Ellipse 20" cx="2.603" cy="2.17" rx="2.603" ry="2.17" transform="translate(8.678 26.33)" fill="none" stroke="#fff" stroke-miterlimit="10" stroke-width="1.5"/>
        <g transform="matrix(1, 0, 0, 1, -33.75, -30.75)" filter="url(#Tracé_14)">
          <path id="Tracé_14-2" data-name="Tracé 14" d="M312.965,268.1h-3.187a1.333,1.333,0,0,0,0,2.666h3.188a1.277,1.277,0,0,0,1.256-1.319v-.028A1.277,1.277,0,0,0,312.965,268.1ZM338.213,241H310.666A2.666,2.666,0,0,0,308,243.666v17.772a2.666,2.666,0,0,0,2.666,2.666h27.547a2.666,2.666,0,0,0,2.666-2.666V243.666A2.666,2.666,0,0,0,338.213,241Zm-8.384,12.243-7.7,4.718a.81.81,0,0,1-1.232-.69v-9.435a.81.81,0,0,1,1.232-.691l7.7,4.718A.81.81,0,0,1,329.829,253.243ZM339.1,268.1H326.139a1.277,1.277,0,0,0-1.256,1.319v.028a1.277,1.277,0,0,0,1.256,1.319H339.1a1.333,1.333,0,0,0,0-2.666Z" transform="translate(-274.25 -210.25)" fill="none" stroke="#fff" stroke-miterlimit="10" stroke-width="1.5"/>
        </g>
      </g>
    </g>
  </g>
</svg>
