<svg xmlns="http://www.w3.org/2000/svg" width="33.596" height="27.173" viewBox="0 0 33.596 27.173">
  <g id="openBook" transform="translate(0 -28.39)">
    <g id="Groupe_159" data-name="Groupe 159" transform="translate(0 28.39)">
      <path id="Tracé_245" data-name="Tracé 245" d="M32.468,32.064H30.113V29.626a1.127,1.127,0,0,0-.96-1.115A17.311,17.311,0,0,0,24,28.666,11.574,11.574,0,0,0,16.8,32.7a11.575,11.575,0,0,0-7.2-4.031,17.315,17.315,0,0,0-5.153-.155,1.127,1.127,0,0,0-.96,1.115v2.438H1.127A1.127,1.127,0,0,0,0,33.191V54.435A1.127,1.127,0,0,0,1.5,55.5c.085-.029,8.532-2.912,14.832-.039a1.127,1.127,0,0,0,.936,0c6.282-2.865,14.748.01,14.832.039a1.127,1.127,0,0,0,1.5-1.065V33.192A1.128,1.128,0,0,0,32.468,32.064ZM2.255,52.927V34.319H3.482V49.332a1.129,1.129,0,0,0,1.293,1.115c.062-.009,4.96-.681,8.538,1.774A27.448,27.448,0,0,0,2.255,52.927ZM15.67,51.2A12.148,12.148,0,0,0,9.6,48.372,17.692,17.692,0,0,0,6.454,48.1c-.259,0-.5.006-.716.014V30.661h0c2.167-.1,7.438.134,9.933,4.365Zm2.255-16.178c2.487-4.213,7.766-4.455,9.933-4.362V48.11A17.871,17.871,0,0,0,24,48.372,12.147,12.147,0,0,0,17.925,51.2V35.026Zm2.354,17.2c3.579-2.456,8.479-1.783,8.54-1.774a1.127,1.127,0,0,0,1.294-1.115V34.319h1.228V52.927A27.442,27.442,0,0,0,20.279,52.222Z" transform="translate(0 -28.39)" fill="#fff"/>
    </g>
  </g>
</svg>
