<svg xmlns="http://www.w3.org/2000/svg" xmlns:xlink="http://www.w3.org/1999/xlink" width="134.972" height="150.867" viewBox="0 0 134.972 150.867">
  <defs>
    <filter id="Tracé_4" x="0" y="30.02" width="134.972" height="120.847" filterUnits="userSpaceOnUse">
      <feOffset dy="3" input="SourceAlpha"/>
      <feGaussianBlur stdDeviation="15.5" result="blur"/>
      <feFlood flood-opacity="0.161"/>
      <feComposite operator="in" in2="blur"/>
      <feComposite in="SourceGraphic"/>
    </filter>
    <filter id="Tracé_5" x="5.55" y="0" width="123.872" height="123.861" filterUnits="userSpaceOnUse">
      <feOffset dy="3" input="SourceAlpha"/>
      <feGaussianBlur stdDeviation="15.5" result="blur-2"/>
      <feFlood flood-opacity="0.161"/>
      <feComposite operator="in" in2="blur-2"/>
      <feComposite in="SourceGraphic"/>
    </filter>
  </defs>
  <g id="profil" transform="translate(-28.055 -32.824)">
    <g transform="matrix(1, 0, 0, 1, 28.05, 32.82)" filter="url(#Tracé_4)">
      <path id="Tracé_4-2" data-name="Tracé 4" d="M105.991,103.865a16.635,16.635,0,0,1-20.9,0,14.758,14.758,0,0,0-9.538,13.8v6.592a5.319,5.319,0,0,0,5.32,5.32h29.33a5.32,5.32,0,0,0,5.321-5.32V117.66A14.759,14.759,0,0,0,105.991,103.865Z" transform="translate(-28.05 -29.21)" fill="none" stroke="#fff" stroke-miterlimit="10" stroke-width="2"/>
    </g>
    <g transform="matrix(1, 0, 0, 1, 28.05, 32.82)" filter="url(#Tracé_5)">
      <path id="Tracé_5-2" data-name="Tracé 5" d="M81.793,87.523a14.424,14.424,0,0,0,3.166,15.892,14.536,14.536,0,0,0,2.415,1.906,14.4,14.4,0,1,0-5.581-17.8Z" transform="translate(-27.61 -34.21)" fill="none" stroke="#fff" stroke-miterlimit="10" stroke-width="2"/>
    </g>
  </g>
</svg>
