<svg xmlns="http://www.w3.org/2000/svg" width="27.881" height="29.662" viewBox="0 0 27.881 29.662">
  <g id="article_vNoir" transform="translate(0)">
    <path id="Tracé_19" data-name="Tracé 19" d="M246.866,145.777l-3.036-3.241v3.241Zm6.318,7.563h0l.662-.632-3.109-3.326-.59.69Zm-.564.686h0L249.5,150.7l-9.883,10.609,3.058,3.237Zm-3.085-4.6h0l1.2-1.274,4.346,4.557-1.253,1.3.016.015-.318.348-5.181,5.485v10.669H227.2V140.867h16.123l.057.043a.334.334,0,0,1,.27.134l.89.952,3.805,3.781v4.85c.386-.4.761-.832,1.153-1.245Zm-9.167,16.09h0l-1.637-1.744-.163,1.919Zm-1.637-3.149h0l3.521,3.869-4.683.512.488-5.011Zm8.7-1.537h0l-4.754,5.036-4.3-4.555c3.022-3.222,6.039-6.445,9.05-9.7v-4.865h-4.023a.461.461,0,0,1-.484-.429v-4.477H228.034v27.808h19.394Z" transform="translate(-227.201 -140.867)" fill="#131111" fill-rule="evenodd"/>
  </g>
</svg>
