<svg xmlns="http://www.w3.org/2000/svg" xmlns:xlink="http://www.w3.org/1999/xlink" width="60.663" height="55.096" viewBox="0 0 60.663 55.096">
  <defs>
    <filter id="Tracé_23-2" x="0" y="0" width="60.663" height="55.096" filterUnits="userSpaceOnUse">
      <feOffset dy="3" input="SourceAlpha"/>
      <feGaussianBlur stdDeviation="3" result="blur"/>
      <feFlood flood-opacity="0.161"/>
      <feComposite operator="in" in2="blur"/>
      <feComposite in="SourceGraphic"/>
    </filter>
  </defs>
  <g id="coeur" transform="translate(10.284 7.271)">
    <g id="Groupe_15" data-name="Groupe 15" transform="translate(0 0)">
      <g transform="matrix(1, 0, 0, 1, -10.28, -7.27)" filter="url(#Tracé_23-2)">
        <path id="Tracé_23-2-2" data-name="Tracé 23-2" d="M456.656,384.821a10.5,10.5,0,0,0-20.07-4.329,10.5,10.5,0,1,0-16.349,12.337l16.018,15.911a.5.5,0,0,0,.357.148.509.509,0,0,0,.359-.148l16.613-16.506h0a10.446,10.446,0,0,0,3.071-7.411Z" transform="translate(-406.24 -367.04)" fill="none" stroke="#fff" stroke-width="2.5"/>
      </g>
    </g>
  </g>
</svg>
