<svg xmlns="http://www.w3.org/2000/svg" xmlns:xlink="http://www.w3.org/1999/xlink" width="296.995" height="240.785" viewBox="0 0 296.995 240.785">
  <defs>
    <clipPath id="clip-path">
      <rect id="Rectangle_46" data-name="Rectangle 46" width="296.995" height="240.785" transform="translate(0 0)" fill="none"/>
    </clipPath>
    <clipPath id="clip-path-2">
      <circle id="Ellipse_253" data-name="Ellipse 253" cx="21.367" cy="21.367" r="21.367" fill="#e6eeff"/>
    </clipPath>
    <clipPath id="clip-path-3">
      <circle id="Ellipse_257" data-name="Ellipse 257" cx="21.367" cy="21.367" r="21.367" fill="none"/>
    </clipPath>
  </defs>
  <g id="illustration5" transform="translate(-1794.094 -1798.178)">
    <g id="Groupe_157" data-name="Groupe 157" transform="translate(1794.094 1798.178)" clip-path="url(#clip-path)">
      <g id="Groupe_156" data-name="Groupe 156" transform="translate(3.405 12.826)">
        <path id="Tracé_143" data-name="Tracé 143" d="M2027.473,2146.963c-27.96-24.224-49.461-60.332-43.589-96.857,3.789-23.57,18.233-43.843,32.265-63.156,15.016-20.667,35.158-43.713,60.506-40.537,23.032,2.886,38.208,26.645,60.52,33.047,25.036,7.183,54.843-8.609,76.674,5.6,19.731,12.839,19.584,41.259,17.2,64.678-3.722,36.627-9.136,76.759-36.385,101.517-23.211,21.089-57.788,25.695-88.537,19.533s-58.7-21.673-86.072-36.97Z" transform="translate(-1947.577 -1928.592)" fill="#f097a5"/>
        <g id="Groupe_117" data-name="Groupe 117" transform="translate(4.633 98.229)">
          <g id="Groupe_100" data-name="Groupe 100" transform="translate(6.266 8.649)">
            <path id="Tracé_144" data-name="Tracé 144" d="M1917.216,2513.158c6.743-47.143-51.56-130.687-52.15-131.524l-1.253.881c.586.834,58.543,83.882,51.887,130.426Z" transform="translate(-1863.813 -2381.634)" fill="#f3d3d3"/>
          </g>
          <g id="Groupe_101" data-name="Groupe 101">
            <path id="Tracé_145" data-name="Tracé 145" d="M1835.3,2349.489c3.118,5.464,7.576,8.792,9.958,7.433s1.785-6.891-1.333-12.355-6.156-5.766-8.538-4.407S1832.187,2344.024,1835.3,2349.489Z" transform="translate(-1833.271 -2339.479)" fill="#f3d3d3"/>
          </g>
          <g id="Groupe_104" data-name="Groupe 104" transform="translate(0.467 10.225)">
            <g id="Groupe_102" data-name="Groupe 102" transform="translate(18.584)">
              <path id="Tracé_146" data-name="Tracé 146" d="M1927.418,2396.235c-2.049,5.949-1.607,11.494.986,12.388s6.355-3.205,8.4-9.154,1.087-9.031-1.506-9.924S1929.467,2390.287,1927.418,2396.235Z" transform="translate(-1926.13 -2389.318)" fill="#f3d3d3"/>
            </g>
            <g id="Groupe_103" data-name="Groupe 103" transform="translate(0 12.838)">
              <path id="Tracé_147" data-name="Tracé 147" d="M1845.511,2452.387c6.126,1.432,10.587,4.757,9.963,7.427s-6.1,3.675-12.222,2.244-8.224-3.886-7.6-6.556S1839.385,2450.956,1845.511,2452.387Z" transform="translate(-1835.546 -2451.893)" fill="#f3d3d3"/>
            </g>
          </g>
          <g id="Groupe_107" data-name="Groupe 107" transform="translate(9.556 26.175)">
            <g id="Groupe_105" data-name="Groupe 105" transform="translate(18.585)">
              <path id="Tracé_148" data-name="Tracé 148" d="M1971.722,2473.977c-2.049,5.949-1.607,11.495.986,12.388s6.355-3.206,8.4-9.154,1.087-9.031-1.506-9.924S1973.771,2468.029,1971.722,2473.977Z" transform="translate(-1970.434 -2467.06)" fill="#f3d3d3"/>
            </g>
            <g id="Groupe_106" data-name="Groupe 106" transform="translate(0 12.838)">
              <path id="Tracé_149" data-name="Tracé 149" d="M1889.814,2530.129c6.126,1.432,10.587,4.756,9.963,7.427s-6.1,3.675-12.222,2.243-8.224-3.886-7.6-6.557S1883.688,2528.7,1889.814,2530.129Z" transform="translate(-1879.849 -2529.635)" fill="#f3d3d3"/>
            </g>
          </g>
          <g id="Groupe_110" data-name="Groupe 110" transform="translate(18.407 42.798)">
            <g id="Groupe_108" data-name="Groupe 108" transform="translate(18.658)">
              <path id="Tracé_150" data-name="Tracé 150" d="M2015.392,2554.841c-2.191,5.9-1.883,11.452.687,12.407s6.431-3.052,8.622-8.949,1.3-9-1.267-9.957S2017.583,2548.943,2015.392,2554.841Z" transform="translate(-2013.931 -2548.081)" fill="#f3d3d3"/>
            </g>
            <g id="Groupe_109" data-name="Groupe 109" transform="translate(0 12.344)">
              <path id="Tracé_151" data-name="Tracé 151" d="M1933.05,2608.836c6.09,1.578,10.469,5.01,9.781,7.664s-6.183,3.527-12.273,1.949-8.128-4.083-7.44-6.737S1926.96,2607.257,1933.05,2608.836Z" transform="translate(-1922.991 -2608.245)" fill="#f3d3d3"/>
            </g>
          </g>
          <g id="Groupe_113" data-name="Groupe 113" transform="translate(27.245 62.488)">
            <g id="Groupe_111" data-name="Groupe 111" transform="translate(18.756)">
              <path id="Tracé_152" data-name="Tracé 152" d="M2059.328,2650.484c-2.483,5.78-2.453,11.344.067,12.426s6.575-2.726,9.058-8.507,1.752-8.926-.768-10.008S2061.811,2644.7,2059.328,2650.484Z" transform="translate(-2057.486 -2644.057)" fill="#f3d3d3"/>
            </g>
            <g id="Groupe_112" data-name="Groupe 112" transform="translate(0 11.28)">
              <path id="Tracé_153" data-name="Tracé 153" d="M1976.31,2699.847c6,1.88,10.206,5.526,9.386,8.143s-6.351,3.214-12.355,1.333-7.914-4.483-7.094-7.1S1970.306,2697.966,1976.31,2699.847Z" transform="translate(-1966.067 -2699.036)" fill="#f3d3d3"/>
            </g>
          </g>
          <g id="Groupe_116" data-name="Groupe 116" transform="translate(33.672 80.565)">
            <g id="Groupe_114" data-name="Groupe 114" transform="translate(18.756)">
              <path id="Tracé_154" data-name="Tracé 154" d="M2090.653,2738.592c-2.482,5.78-2.453,11.344.067,12.426s6.575-2.726,9.058-8.507,1.751-8.926-.768-10.008S2093.136,2732.811,2090.653,2738.592Z" transform="translate(-2088.811 -2732.166)" fill="#f3d3d3"/>
            </g>
            <g id="Groupe_115" data-name="Groupe 115" transform="translate(0 11.28)">
              <path id="Tracé_155" data-name="Tracé 155" d="M2007.635,2787.955c6,1.88,10.206,5.526,9.386,8.144s-6.351,3.214-12.355,1.333-7.914-4.483-7.094-7.1S2001.631,2786.074,2007.635,2787.955Z" transform="translate(-1997.392 -2787.144)" fill="#f3d3d3"/>
            </g>
          </g>
        </g>
        <g id="Groupe_123" data-name="Groupe 123" transform="translate(37.098 77.909)">
          <path id="Tracé_156" data-name="Tracé 156" d="M2036.508,2409.568s-64.942-98-38.8-169.135C1997.713,2240.433,2060.089,2290.451,2036.508,2409.568Z" transform="translate(-1991.508 -2240.433)" fill="#ffd1cc"/>
          <g id="Groupe_118" data-name="Groupe 118" transform="translate(11.358 20.845)">
            <path id="Tracé_157" data-name="Tracé 157" d="M2046.883,2342.508c2.835,10.583,5.539,21.2,8.208,31.826,5.852,23.292,11.442,46.655,16.557,70.121,3.049,13.984,5.93,28.007,8.458,42.094.087.483.823.278.737-.2-4.51-25.139-10.067-50.09-15.929-74.944q-6.87-29.129-14.4-58.1-1.429-5.5-2.89-11a.382.382,0,0,0-.737.2Z" transform="translate(-2046.868 -2342.034)" fill="#ffedee"/>
          </g>
          <g id="Groupe_119" data-name="Groupe 119" transform="translate(20.62 41.91)">
            <path id="Tracé_158" data-name="Tracé 158" d="M2100.649,2444.9l-8.584,14.964a.382.382,0,0,0,.659.385l8.584-14.963a.382.382,0,0,0-.66-.386Z" transform="translate(-2092.012 -2444.709)" fill="#ffedee"/>
          </g>
          <g id="Groupe_120" data-name="Groupe 120" transform="translate(7.992 64.243)">
            <path id="Tracé_159" data-name="Tracé 159" d="M2030.649,2554.275l16.7,9.15c.431.236.818-.423.385-.66l-16.7-9.149c-.431-.236-.817.423-.385.66Z" transform="translate(-2030.46 -2553.565)" fill="#ffedee"/>
          </g>
          <g id="Groupe_121" data-name="Groupe 121" transform="translate(30.198 81.751)">
            <path id="Tracé_160" data-name="Tracé 160" d="M2148.475,2639.074l-9.714,14.842c-.27.413.391.8.66.385l9.714-14.842c.27-.412-.392-.8-.66-.385Z" transform="translate(-2138.697 -2638.898)" fill="#ffedee"/>
          </g>
          <g id="Groupe_122" data-name="Groupe 122" transform="translate(19.215 103.385)">
            <path id="Tracé_161" data-name="Tracé 161" d="M2085.353,2745.057l13.135,7.2c.431.236.817-.423.385-.66l-13.135-7.2c-.431-.237-.817.423-.385.659Z" transform="translate(-2085.164 -2744.347)" fill="#ffedee"/>
          </g>
        </g>
        <path id="Tracé_162" data-name="Tracé 162" d="M1877.7,2723.584c-26.279-85.877-67.013-57.313-67.013-57.313s16.45,21.462,34.667,27.4S1877.7,2723.584,1877.7,2723.584Z" transform="translate(-1810.688 -2497.372)" fill="#f3d3d3"/>
        <g id="Groupe_155" data-name="Groupe 155" transform="translate(7.221)">
          <g id="Groupe_154" data-name="Groupe 154">
            <path id="Tracé_163" data-name="Tracé 163" d="M2083.842,2294.82c-6.821,23.748-92.775,55.519-104.255,52.349a4.146,4.146,0,0,0-1.825-.03,20.521,20.521,0,0,0-6.607,2.826c-13.031,7.715-33.792,28.071-33.792,28.071l-91.475-5.069s35.554-70.5,83.165-116.427a431.593,431.593,0,0,1,45.3-37.275c11.564-8.127,22.991-15.85,31.111-21.4,5.606-3.835,9.639-6.638,11.052-7.814C2023.637,2184.112,2090.663,2271.072,2083.842,2294.82Z" transform="translate(-1845.886 -2122.245)" fill="#ffb3b1"/>
            <path id="Tracé_164" data-name="Tracé 164" d="M2770.1,2013.9c-4.774,4.308-14.5,10.281-25.665,16.484-2.5,1.39-5.072,2.788-7.677,4.186-23.365,12.519-49.336,24.641-49.336,24.641l-15.177-29.965s42-20.272,69.647-31.547v-.008c10.449-4.262,18.852-7.241,22.151-7.348C2776.078,1989.943,2785.527,1999.98,2770.1,2013.9Z" transform="translate(-2502.709 -1963.733)" fill="#ffb3b1"/>
            <path id="Tracé_165" data-name="Tracé 165" d="M2994.376,2058.922c-2.5,1.39-5.072,2.788-7.677,4.186l5.133-36.87C2993.8,2034.136,2994.277,2052.949,2994.376,2058.922Z" transform="translate(-2752.646 -1992.274)" fill="#ff9c9c"/>
            <path id="Tracé_166" data-name="Tracé 166" d="M2519.784,2323.98c-1.925,10.5-29.637,22.235-68.906,22.617s-26.86-11.479-42.646-5.956c-4.011,1.4,6.577-17.746,11.848-30.861,4.186-10.4,3.946-43.182-4.164-61.866,11.564-8.127,27.69-18.123,35.81-23.676a66.162,66.162,0,0,1,9.968-1.283C2485.976,2221.725,2521.708,2313.492,2519.784,2323.98Z" transform="translate(-2292.154 -2148.623)" fill="#ff9c9c"/>
            <g id="Groupe_128" data-name="Groupe 128" transform="translate(131.864)">
              <path id="Tracé_167" data-name="Tracé 167" d="M2587.8,2056.181h-91.061c-4.49,0-8.13-4.025-8.13-8.991v-177.5a9.39,9.39,0,0,1,2.832-6.82,7.663,7.663,0,0,1,5.3-2.17H2587.8c4.49,0,8.13,4.025,8.13,8.99v177.5C2595.935,2052.156,2592.294,2056.181,2587.8,2056.181Z" transform="translate(-2488.613 -1860.695)" fill="#9ac3ff"/>
              <path id="Tracé_168" data-name="Tracé 168" d="M2516.63,2058.045a3.031,3.031,0,0,1-3-3.055V1891.414a3.083,3.083,0,0,1,1.046-2.319,2.926,2.926,0,0,1,1.952-.736h91.061a3.03,3.03,0,0,1,3,3.054V2054.99a3.031,3.031,0,0,1-3,3.055Z" transform="translate(-2508.499 -1882.683)" fill="#fff"/>
              <path id="Tracé_169" data-name="Tracé 169" d="M2664.128,1882.119h-41.556a6.793,6.793,0,0,1-6.793-6.793v-.8h55.142v.8A6.793,6.793,0,0,1,2664.128,1882.119Z" transform="translate(-2589.689 -1871.689)" fill="#9ac3ff"/>
              <circle id="Ellipse_248" data-name="Ellipse 248" cx="6.699" cy="6.699" r="6.699" transform="translate(46.782 178.62)" fill="#b8d5ff"/>
              <g id="Groupe_124" data-name="Groupe 124" transform="translate(11.419 14.29)">
                <path id="Tracé_170" data-name="Tracé 170" d="M2544.271,1934.627v-.433h1.017v-3.069l-.9.643v-.481l.942-.648h.471v3.556h.97v.433Z" transform="translate(-2544.271 -1930.579)" fill="#b3c3e6"/>
                <path id="Tracé_171" data-name="Tracé 171" d="M2561.716,1933.328a1.317,1.317,0,0,1-.374.994,1.439,1.439,0,0,1-1.041.363,1.52,1.52,0,0,1-.9-.244,1.08,1.08,0,0,1-.434-.705l.515-.059a.765.765,0,0,0,.83.592.836.836,0,0,0,.642-.248.956.956,0,0,0,.233-.681.82.82,0,0,0-.234-.609.854.854,0,0,0-.631-.232,1.113,1.113,0,0,0-.385.065,1.145,1.145,0,0,0-.357.221h-.5l.133-2.146h2.268v.433h-1.8l-.077,1.265a1.314,1.314,0,0,1,.825-.255,1.278,1.278,0,0,1,.938.345A1.211,1.211,0,0,1,2561.716,1933.328Z" transform="translate(-2555.952 -1930.579)" fill="#b3c3e6"/>
                <path id="Tracé_172" data-name="Tracé 172" d="M2576.136,1935.736v-.586h.552v.586Zm0,2.477v-.586h.552v.586Z" transform="translate(-2569.598 -1934.165)" fill="#b3c3e6"/>
                <path id="Tracé_173" data-name="Tracé 173" d="M2585.28,1932.4a2.748,2.748,0,0,1-.352,1.526,1.172,1.172,0,0,1-1.041.526,1.154,1.154,0,0,1-1.033-.523,2.786,2.786,0,0,1-.345-1.529,2.848,2.848,0,0,1,.335-1.54,1.176,1.176,0,0,1,1.061-.512,1.15,1.15,0,0,1,1.04.518A2.844,2.844,0,0,1,2585.28,1932.4Zm-.518,0a2.9,2.9,0,0,0-.2-1.251.684.684,0,0,0-.658-.388.708.708,0,0,0-.676.382,3.881,3.881,0,0,0,0,2.5.747.747,0,0,0,1.321-.009A2.784,2.784,0,0,0,2584.763,1932.4Z" transform="translate(-2574.664 -1930.349)" fill="#b3c3e6"/>
                <path id="Tracé_174" data-name="Tracé 174" d="M2601.071,1933.285a1.084,1.084,0,0,1-.352.86,1.479,1.479,0,0,1-1.008.309,1.508,1.508,0,0,1-1-.3,1.06,1.06,0,0,1-.361-.861.987.987,0,0,1,.224-.657.913.913,0,0,1,.572-.323v-.011a.861.861,0,0,1-.514-.331.975.975,0,0,1-.188-.6.913.913,0,0,1,.341-.739,1.391,1.391,0,0,1,.916-.283,1.439,1.439,0,0,1,.931.277.916.916,0,0,1,.341.75.974.974,0,0,1-.19.6.817.817,0,0,1-.518.32v.011a.924.924,0,0,1,.595.324A1.007,1.007,0,0,1,2601.071,1933.285Zm-.53-.048a.693.693,0,0,0-.221-.559.926.926,0,0,0-.62-.188.857.857,0,0,0-.605.2.721.721,0,0,0-.218.556.736.736,0,0,0,.841.824.721.721,0,0,0,.823-.835Zm-.1-1.831q0-.677-.742-.677a.789.789,0,0,0-.547.17.647.647,0,0,0-.188.507.678.678,0,0,0,.194.522.776.776,0,0,0,.548.18.8.8,0,0,0,.547-.166A.68.68,0,0,0,2600.442,1931.405Z" transform="translate(-2587.255 -1930.349)" fill="#b3c3e6"/>
              </g>
              <g id="Groupe_127" data-name="Groupe 127" transform="translate(77.461 13.3)">
                <g id="Groupe_125" data-name="Groupe 125" transform="translate(9.983 0.833)">
                  <path id="Tracé_175" data-name="Tracé 175" d="M2925.943,1930.037v3.28h-7.637v-3.28Zm0-.458h-7.637a.458.458,0,0,0-.458.458v3.28a.458.458,0,0,0,.458.458h7.637a.458.458,0,0,0,.458-.458v-3.28a.458.458,0,0,0-.458-.458Z" transform="translate(-2917.229 -1929.579)" fill="#b3c3e6"/>
                  <rect id="Rectangle_41" data-name="Rectangle 41" width="0.759" height="2.518" transform="translate(0 0.839)" fill="#b3c3e6"/>
                  <rect id="Rectangle_42" data-name="Rectangle 42" width="0.727" height="2.518" transform="translate(4.533 0.839)" fill="#b3c3e6"/>
                  <rect id="Rectangle_43" data-name="Rectangle 43" width="0.727" height="2.518" transform="translate(3.531 0.839)" fill="#b3c3e6"/>
                  <rect id="Rectangle_44" data-name="Rectangle 44" width="0.727" height="2.518" transform="translate(2.53 0.839)" fill="#b3c3e6"/>
                  <rect id="Rectangle_45" data-name="Rectangle 45" width="0.727" height="2.518" transform="translate(1.529 0.839)" fill="#b3c3e6"/>
                </g>
                <g id="Groupe_126" data-name="Groupe 126">
                  <path id="Tracé_176" data-name="Tracé 176" d="M2898.918,1925.888v4.727h.658v-5.1Z" transform="translate(-2892.199 -1925.519)" fill="#b3c3e6"/>
                  <path id="Tracé_177" data-name="Tracé 177" d="M2893.441,1928.958v4.1h.659v-4.466Z" transform="translate(-2887.846 -1927.959)" fill="#b3c3e6"/>
                  <path id="Tracé_178" data-name="Tracé 178" d="M2887.965,1932.028v3.467h.658v-3.836Z" transform="translate(-2883.493 -1930.399)" fill="#b3c3e6"/>
                  <path id="Tracé_179" data-name="Tracé 179" d="M2882.488,1935.093v2.843h.653v-3.206Z" transform="translate(-2879.14 -1932.84)" fill="#b3c3e6"/>
                  <path id="Tracé_180" data-name="Tracé 180" d="M2876.984,1938.169v2.208h.658V1937.8Z" transform="translate(-2874.765 -1935.28)" fill="#b3c3e6"/>
                  <path id="Tracé_181" data-name="Tracé 181" d="M2871.507,1941.239v1.578h.658v-1.946Z" transform="translate(-2870.412 -1937.72)" fill="#b3c3e6"/>
                  <path id="Tracé_182" data-name="Tracé 182" d="M2866.169,1944.226v.965h.658v-1.333Z" transform="translate(-2866.169 -1940.095)" fill="#b3c3e6"/>
                </g>
              </g>
            </g>
            <path id="Tracé_183" data-name="Tracé 183" d="M2248.969,2093.494c2.8,15.834,3.17,41.156-14.643,49.474s-41.553,5.935-43.531-16.629,13.848-71.236,21.769-82.312c5.485-7.684,12.871-23.152,16.888-34.961,1.772-5.232,2.9-9.739,2.9-12.535,0-9.1,4.354-7.119,4.354-7.119,4.812-1.986,8.112-.069,10.358,3.56v.008c2.093,3.376,3.284,8.234,3.941,12.794v.015a77.461,77.461,0,0,1,.764,10.533c0,6.08.244,13.459-2.8,23.381a.132.132,0,0,0-.015.038c-.161.519-.328,1.046-.512,1.581-.007.031-.023.061-.031.092l-.115.344a.581.581,0,0,0-.031.084c-.458,1.337-.978,2.727-1.566,4.156-.16.4-.321.8-.5,1.191-.115.268-.229.542-.336.818-.038.1-.076.191-.107.282C2240.567,2061.917,2246.258,2078.079,2248.969,2093.494Z" transform="translate(-2119.897 -1962.37)" fill="#ffb3b1"/>
            <g id="Groupe_133" data-name="Groupe 133" transform="translate(159.469 84.553)">
              <g id="Groupe_129" data-name="Groupe 129" transform="translate(19.681 19.636)">
                <path id="Tracé_184" data-name="Tracé 184" d="M2720.974,2369.6a.33.33,0,0,1-.065-.006q-.768-.132-1.52-.308a.382.382,0,0,1,.175-.745q.729.171,1.474.3a.382.382,0,0,1-.064.759Z" transform="translate(-2719.094 -2368.528)" fill="#f50f0f"/>
              </g>
              <g id="Groupe_130" data-name="Groupe 130" transform="translate(0.854 2.871)">
                <path id="Tracé_185" data-name="Tracé 185" d="M2645.125,2303.97a.38.38,0,0,1-.107-.016,26.739,26.739,0,0,1-2.792-.991.382.382,0,0,1,.3-.7,26.083,26.083,0,0,0,2.711.962.382.382,0,0,1-.107.748Zm-4.082-1.578a.383.383,0,0,1-.167-.038,26.865,26.865,0,0,1-2.588-1.44.382.382,0,1,1,.407-.646,25.941,25.941,0,0,0,2.514,1.4.382.382,0,0,1-.167.726Zm-3.761-2.231a.381.381,0,0,1-.222-.071,26.984,26.984,0,0,1-2.314-1.845.382.382,0,1,1,.509-.57,25.933,25.933,0,0,0,2.248,1.792.382.382,0,0,1-.221.694Zm-3.345-2.82a.381.381,0,0,1-.27-.111,27.378,27.378,0,0,1-1.98-2.2.382.382,0,0,1,.6-.479,26.51,26.51,0,0,0,1.924,2.137.381.381,0,0,1-.269.653Zm-2.837-3.33a.382.382,0,0,1-.311-.159,27.014,27.014,0,0,1-1.592-2.495.382.382,0,0,1,.665-.375,26.161,26.161,0,0,0,1.548,2.424.382.382,0,0,1-.31.605Zm-2.249-3.75a.381.381,0,0,1-.343-.214,26.906,26.906,0,0,1-1.157-2.723.382.382,0,1,1,.718-.26,26.383,26.383,0,0,0,1.125,2.646.382.382,0,0,1-.343.551Z" transform="translate(-2627.327 -2286.813)" fill="#f50f0f"/>
              </g>
              <g id="Groupe_131" data-name="Groupe 131">
                <path id="Tracé_186" data-name="Tracé 186" d="M2623.941,2275.062a.383.383,0,0,1-.366-.273q-.221-.739-.4-1.5a.382.382,0,0,1,.743-.176q.174.736.389,1.455a.382.382,0,0,1-.257.475A.39.39,0,0,1,2623.941,2275.062Z" transform="translate(-2623.165 -2272.821)" fill="#f50f0f"/>
              </g>
              <g id="Groupe_132" data-name="Groupe 132" transform="translate(19.148 17.212)">
                <path id="Tracé_187" data-name="Tracé 187" d="M2717.072,2356.716l.906,2.937-1.485,2.691,6.959-2.128Z" transform="translate(-2716.493 -2356.716)" fill="#f50f0f"/>
              </g>
            </g>
            <g id="Groupe_138" data-name="Groupe 138" transform="translate(184.546 50.022)">
              <g id="Groupe_134" data-name="Groupe 134" transform="translate(4.177 2.228)">
                <path id="Tracé_188" data-name="Tracé 188" d="M2767.642,2116.381a.392.392,0,0,1-.073-.007q-.736-.142-1.487-.242a.382.382,0,0,1,.1-.757q.772.1,1.53.249a.382.382,0,0,1-.071.757Z" transform="translate(-2765.751 -2115.371)" fill="#f50f0f"/>
              </g>
              <g id="Groupe_135" data-name="Groupe 135" transform="translate(7.246 2.824)">
                <path id="Tracé_189" data-name="Tracé 189" d="M2799.833,2137.089a.383.383,0,0,1-.366-.273,26.362,26.362,0,0,0-1.081-2.959.382.382,0,1,1,.7-.3,26.689,26.689,0,0,1,1.113,3.046.382.382,0,0,1-.257.475A.373.373,0,0,1,2799.833,2137.089Zm-1.781-4.449a.38.38,0,0,1-.34-.209,26.183,26.183,0,0,0-1.6-2.715.382.382,0,0,1,.634-.427,27.085,27.085,0,0,1,1.647,2.794.382.382,0,0,1-.34.556Zm-2.558-4.053a.38.38,0,0,1-.3-.15,26.075,26.075,0,0,0-2.063-2.382.382.382,0,0,1,.546-.534,26.988,26.988,0,0,1,2.124,2.452.382.382,0,0,1-.3.614Zm-3.245-3.527a.381.381,0,0,1-.256-.1,26.132,26.132,0,0,0-2.458-1.973.382.382,0,0,1,.442-.624,26.921,26.921,0,0,1,2.53,2.031.382.382,0,0,1-.257.665Zm-3.828-2.887a.383.383,0,0,1-.2-.057,26.07,26.07,0,0,0-2.773-1.5.382.382,0,0,1,.323-.693,26.823,26.823,0,0,1,2.854,1.542.382.382,0,0,1-.2.706Zm-4.285-2.148A.381.381,0,0,1,2784,2120a26.007,26.007,0,0,0-3-.969.382.382,0,1,1,.189-.74,26.818,26.818,0,0,1,3.088,1,.382.382,0,0,1-.139.738Z" transform="translate(-2780.711 -2118.276)" fill="#f50f0f"/>
              </g>
              <g id="Groupe_136" data-name="Groupe 136" transform="translate(26.398 22.429)">
                <path id="Tracé_190" data-name="Tracé 190" d="M2874.743,2216.094a.383.383,0,0,1-.376-.318q-.127-.745-.3-1.476a.382.382,0,0,1,.745-.173q.174.752.306,1.52a.382.382,0,0,1-.312.441A.4.4,0,0,1,2874.743,2216.094Z" transform="translate(-2874.06 -2213.832)" fill="#f50f0f"/>
              </g>
              <g id="Groupe_137" data-name="Groupe 137">
                <path id="Tracé_191" data-name="Tracé 191" d="M2751.9,2110.157l-1.019-2.9,1.379-2.747-6.872,2.4Z" transform="translate(-2745.393 -2104.511)" fill="#f50f0f"/>
              </g>
            </g>
            <path id="Tracé_192" data-name="Tracé 192" d="M3018.029,2248.17a31.254,31.254,0,0,1-9.648,5.163,8.752,8.752,0,0,1-11.062-6.172c-1.733-6.717-1.9-13.03-.035-18.82a26.311,26.311,0,0,1,2.383-5.339h7.516C3019.97,2223.384,3028.1,2240.425,3018.029,2248.17Z" transform="translate(-2759.999 -2148.67)" fill="#ffb3b1"/>
            <path id="Tracé_193" data-name="Tracé 193" d="M3006.581,2401.262c12.781.387,20.914,17.428,10.844,25.174a30.905,30.905,0,0,1-10.182,5.323,8.574,8.574,0,0,1-10.722-6.012,34.38,34.38,0,0,1,2.057-24.422Z" transform="translate(-2759.395 -2290.357)" fill="#ffb3b1"/>
            <path id="Tracé_194" data-name="Tracé 194" d="M3021.667,2601.43a27.428,27.428,0,0,1-7.948,4.348,7.415,7.415,0,0,1-9.663-5.866,43.335,43.335,0,0,1,.555-16.386c.3-1.329.175-2.666.595-4h7.021C3023.347,2579.859,3030.428,2594.693,3021.667,2601.43Z" transform="translate(-2766.02 -2432.045)" fill="#ffb3b1"/>
            <path id="Tracé_195" data-name="Tracé 195" d="M3046.935,2435.847c6.584,6.584,2.13,17.428,2.13,17.428s9.1-2.711,7.94-10.845S3046.935,2435.847,3046.935,2435.847Z" transform="translate(-2800.523 -2317.753)" fill="#ffd2d1"/>
            <path id="Tracé_196" data-name="Tracé 196" d="M3046.935,2259.252c6.584,6.584,2.13,17.429,2.13,17.429s9.1-2.711,7.94-10.845S3046.935,2259.252,3046.935,2259.252Z" transform="translate(-2800.523 -2177.389)" fill="#ffd2d1"/>
            <path id="Tracé_197" data-name="Tracé 197" d="M3046.935,2623.436c5.051,5.051,1.634,13.37,1.634,13.37s6.982-2.08,6.091-8.319S3046.935,2623.436,3046.935,2623.436Z" transform="translate(-2800.523 -2466.877)" fill="#ffd2d1"/>
            <path id="Tracé_198" data-name="Tracé 198" d="M2384.093,2010.754c-1.948,1.3-4.217-.581-4.217-.581,1.295-7.307,1.8-10.158,2.484-13.793,1.675-8.941,4.765-5.861,4.765-5.861C2388,1995.355,2386.032,2009.463,2384.093,2010.754Z" transform="translate(-2270.321 -1963.477)" fill="#ffd2d1"/>
            <path id="Tracé_199" data-name="Tracé 199" d="M2402.2,2880.922a20.515,20.515,0,0,0-6.607,2.826c-5.737-5.943-13.443-14.964-15.712-22.426,0,0,8.746,6.928,22.312,19.593Z" transform="translate(-2270.321 -2656.03)" fill="#ff9c9c"/>
            <path id="Tracé_200" data-name="Tracé 200" d="M3002.448,2228.341a26.323,26.323,0,0,1,2.383-5.339s3.56,1.23,4.293,3.139C3009.758,2227.784,3005.48,2227.142,3002.448,2228.341Z" transform="translate(-2765.163 -2148.67)" fill="#ff9c9c"/>
            <path id="Tracé_201" data-name="Tracé 201" d="M3001.974,2406.764a23.739,23.739,0,0,1,2-5.2s4.04,1.168,4.773,3.077C3009.382,2406.285,3005.007,2405.565,3001.974,2406.764Z" transform="translate(-2764.787 -2290.599)" fill="#ff9c9c"/>
            <path id="Tracé_202" data-name="Tracé 202" d="M3009.891,2583.434c-.512.237-.855.252-1.077.092.3-1.329.175-2.666.6-4h.26C3011.12,2581.211,3012.374,2582.258,3009.891,2583.434Z" transform="translate(-2770.223 -2432.045)" fill="#ff9c9c"/>
            <path id="Tracé_203" data-name="Tracé 203" d="M2474.963,2106.244c2.261-8.311,1.428-24.031,2.039-33.915a77.379,77.379,0,0,1,.764,10.533C2477.766,2088.943,2478.011,2096.322,2474.963,2106.244Z" transform="translate(-2345.899 -2028.909)" fill="#ff9c9c"/>
            <g id="Groupe_150" data-name="Groupe 150" transform="translate(142.842 41.344)">
              <circle id="Ellipse_249" data-name="Ellipse 249" cx="21.367" cy="21.367" r="21.367" fill="#e6eeff"/>
              <g id="Groupe_149" data-name="Groupe 149" clip-path="url(#clip-path-2)">
                <circle id="Ellipse_250" data-name="Ellipse 250" cx="21.367" cy="21.367" r="21.367" fill="#e6eeff"/>
                <g id="Groupe_148" data-name="Groupe 148" transform="translate(-12.198 5.099)">
                  <path id="Tracé_204" data-name="Tracé 204" d="M2682.709,2280.788l-2.984,4.667s-10.861.62-20.636-14.085c-.59-.884-1.179-1.83-1.756-2.831-10.18-17.609-8.131-39.825-2.145-39.076.945.117,4.036,3.491,7.284,10.127,2.669,5.453,5.084,14.6,7.313,20.8C2673.677,2271.186,2682.709,2280.788,2682.709,2280.788Z" transform="translate(-2615.826 -2200.233)" fill="#5d92f5"/>
                  <path id="Tracé_205" data-name="Tracé 205" d="M2560.893,2214.41c-.921,5.464-1.756,9.468-1.756,9.468-6.969,3.094-12.685,3.573-17.087,2.978-7.1-.958-10.775-4.691-10.775-4.691-3.266-6.692-5.778-31.995-4.064-38.533.688-2.64,1.252-4.8,3.776-6.312a51.765,51.765,0,0,0,10.917-8.958.6.6,0,0,0,.055-.073,8.4,8.4,0,0,0,.737-1.038c.166-.276.319-.552.454-.835a15.511,15.511,0,0,0,.976-8.632l5.176,1.7,6.318,2.069a16.836,16.836,0,0,0-.086,3.758c.006.062.012.117.012.178a24.073,24.073,0,0,0,.405,2.7,18.685,18.685,0,0,0,.614,2.278,8.426,8.426,0,0,0,1.277,2.518,12.924,12.924,0,0,1,2.051,4.144c.712,2.1,1.529,5.035,2.812,9.4C2564.258,2191.8,2562.453,2205.188,2560.893,2214.41Z" transform="translate(-2517.63 -2143.273)" fill="#ffb3b1"/>
                  <path id="Tracé_206" data-name="Tracé 206" d="M2619.516,2165.389c-.025.031-.581-.069-.606-.038-.791,2.206-3.532,5.484-11.865,1.063a15.509,15.509,0,0,0,.976-8.632l5.176,1.7,4.922,4.109Z" transform="translate(-2581.527 -2143.273)" fill="#ff9c9c"/>
                  <path id="Tracé_207" data-name="Tracé 207" d="M2621.463,2109.554c5.946-1.727,5.805,6.111,5.652,8.326s-.148,8.672-3.967,10.429-6.116.035-7.414-2.409a14.788,14.788,0,0,1-1.681-9.548C2614.664,2112.3,2619.095,2110.241,2621.463,2109.554Z" transform="translate(-2586.95 -2104.744)" fill="#ffb3b1"/>
                  <path id="Tracé_208" data-name="Tracé 208" d="M2604.635,2105.621c-1.222-2.139-3.819-4.965-3.667-7.792s-.57-5.22,2.642-6.2c2.935-.9,3.851.246,4.921-.976s3.055-4.965,7.409-3.056,5.424,3.285,5.653,5.271.658,4.645-2.062,4.354-3.284-1.451-4.888-.306-4.2-.84-5.576-1.07-2.441.841-3.663,1.451.844,2.936,0,3.912a1.181,1.181,0,0,1-1.789,0Z" transform="translate(-2576.691 -2087.061)" fill="#3f1a2e"/>
                  <path id="Tracé_209" data-name="Tracé 209" d="M2603.743,2145.742c-1.986-.952-2.75,2.18-2.75,4.013s3.514,3.361,4.278,2.673S2603.743,2145.742,2603.743,2145.742Z" transform="translate(-2576.716 -2133.563)" fill="#ffb3b1"/>
                  <circle id="Ellipse_251" data-name="Ellipse 251" cx="0.573" cy="0.573" r="0.573" transform="translate(32.985 13.366)"/>
                  <circle id="Ellipse_252" data-name="Ellipse 252" cx="0.573" cy="0.573" r="0.573" transform="translate(37.988 13.366)"/>
                  <g id="Groupe_139" data-name="Groupe 139" transform="translate(31.12 11.563)">
                    <path id="Tracé_210" data-name="Tracé 210" d="M2634.92,2145.027a.572.572,0,0,1-.291-1.066,4.557,4.557,0,0,1,3.739-.246.573.573,0,0,1-.42,1.066,3.445,3.445,0,0,0-2.744.17A.572.572,0,0,1,2634.92,2145.027Z" transform="translate(-2634.345 -2143.419)" fill="#3f1a2e"/>
                  </g>
                  <g id="Groupe_140" data-name="Groupe 140" transform="translate(37.415 11.769)">
                    <path id="Tracé_211" data-name="Tracé 211" d="M2667.988,2145.83a.564.564,0,0,1-.3-.083,3.807,3.807,0,0,0-1.983-.084.573.573,0,1,1-.212-1.126,4.779,4.779,0,0,1,2.788.231.573.573,0,0,1-.3,1.063Z" transform="translate(-2665.03 -2144.427)" fill="#3f1a2e"/>
                  </g>
                  <path id="Tracé_212" data-name="Tracé 212" d="M2563.3,2250.818c.292,19.185-2.381,20.384-2.381,20.384-6.969,3.094-16.7,1.609-21.1,1.013-7.1-.957-8.543-13.372-8.543-13.372-3.266-6.692-5.778-31.994-4.064-38.533.688-2.64,1.252-4.8,3.776-6.312a51.787,51.787,0,0,0,10.917-8.958.622.622,0,0,0,.055-.074,8.417,8.417,0,0,0,.737-1.038c2,.977,7.521,3.156,13.256.933a18.665,18.665,0,0,0,.614,2.278,8.41,8.41,0,0,0,1.277,2.517,12.931,12.931,0,0,1,2.051,4.144c.712,2.1,1.529,5.035,2.812,9.4C2564.258,2228.481,2563.157,2241.466,2563.3,2250.818Z" transform="translate(-2517.63 -2179.951)" fill="#6198ff"/>
                  <g id="Groupe_141" data-name="Groupe 141" transform="translate(22.629 24.95)">
                    <path id="Tracé_213" data-name="Tracé 213" d="M2593.344,2212.5a.382.382,0,0,1-.213-.7,14.586,14.586,0,0,0,2.4-2.957.382.382,0,0,1,.642.416,15.2,15.2,0,0,1-2.616,3.176A.379.379,0,0,1,2593.344,2212.5Z" transform="translate(-2592.962 -2208.673)" fill="#598ceb"/>
                  </g>
                  <g id="Groupe_142" data-name="Groupe 142" transform="translate(25.34 25.614)">
                    <path id="Tracé_214" data-name="Tracé 214" d="M2606.556,2216.5a.382.382,0,0,1-.352-.531l1.625-3.827a.382.382,0,1,1,.7.3l-1.626,3.827A.381.381,0,0,1,2606.556,2216.5Z" transform="translate(-2606.174 -2211.909)" fill="#598ceb"/>
                  </g>
                  <g id="Groupe_143" data-name="Groupe 143" transform="translate(28.572 26.119)">
                    <path id="Tracé_215" data-name="Tracé 215" d="M2622.312,2218.9a.457.457,0,0,1-.058,0,.382.382,0,0,1-.32-.435l.568-3.773a.382.382,0,1,1,.755.114l-.569,3.773A.381.381,0,0,1,2622.312,2218.9Z" transform="translate(-2621.929 -2214.367)" fill="#598ceb"/>
                  </g>
                  <g id="Groupe_144" data-name="Groupe 144" transform="translate(31.307 26.593)">
                    <path id="Tracé_216" data-name="Tracé 216" d="M2635.643,2221.291a.382.382,0,0,1-.382-.382v-3.849a.382.382,0,1,1,.764,0v3.849A.382.382,0,0,1,2635.643,2221.291Z" transform="translate(-2635.261 -2216.678)" fill="#598ceb"/>
                  </g>
                  <g id="Groupe_145" data-name="Groupe 145" transform="translate(33.533 26.592)">
                    <path id="Tracé_217" data-name="Tracé 217" d="M2646.945,2221.193a.381.381,0,0,1-.378-.335l-.457-3.755a.382.382,0,0,1,.758-.092l.457,3.754a.382.382,0,0,1-.333.425Z" transform="translate(-2646.107 -2216.674)" fill="#598ceb"/>
                  </g>
                  <g id="Groupe_146" data-name="Groupe 146" transform="translate(35.569 26.405)">
                    <path id="Tracé_218" data-name="Tracé 218" d="M2657.383,2220.144a.382.382,0,0,1-.369-.284l-.966-3.616a.382.382,0,0,1,.739-.2l.966,3.617a.382.382,0,0,1-.271.468A.373.373,0,0,1,2657.383,2220.144Z" transform="translate(-2656.034 -2215.763)" fill="#598ceb"/>
                  </g>
                  <g id="Groupe_147" data-name="Groupe 147" transform="translate(37.283 25.946)">
                    <path id="Tracé_219" data-name="Tracé 219" d="M2665.947,2217.787a.382.382,0,0,1-.362-.26l-1.177-3.494a.382.382,0,0,1,.724-.244l1.177,3.495a.381.381,0,0,1-.24.483A.372.372,0,0,1,2665.947,2217.787Z" transform="translate(-2664.388 -2213.528)" fill="#598ceb"/>
                  </g>
                  <path id="Tracé_220" data-name="Tracé 220" d="M2648.3,2180.128c-.962-.151.25,1.654,2.449,1.286.9-.151,1.178-1.115,1.285-1.492S2650.667,2180.5,2648.3,2180.128Z" transform="translate(-2614.054 -2160.8)" fill="#fff"/>
                  <path id="Tracé_221" data-name="Tracé 221" d="M2514.354,2313.243l-4.771,4.052s-20.747-6.852-25.879-29.269c-4.666-20.347,7.49-37.619,14.422-38.533h.006a3.563,3.563,0,0,1,1.922.246,10.039,10.039,0,0,1,5.44,7.626c1.118,6.772-.951,16.657-2.333,23.97-.989,5.212,1.216,12.249,3.923,18.389A104.514,104.514,0,0,0,2514.354,2313.243Z" transform="translate(-2482.664 -2216.141)" fill="#80acff"/>
                  <path id="Tracé_222" data-name="Tracé 222" d="M2790.176,2479.7c3.238.611,10.342,3.689,4.906,6.182-2.251,1.033-9.678-1.64-9.678-1.64Z" transform="translate(-2723.293 -2399.145)" fill="#ffb3b1"/>
                  <path id="Tracé_223" data-name="Tracé 223" d="M2618.641,2560.352c6.062,1.807,6.951,3.2,5.046,3.754-1.129.326-2,1.374-.906,1.773,4.673,1.7,1.492,4.519-1.856,3.727a10.545,10.545,0,0,1-7.055-5.2Z" transform="translate(-2586.951 -2463.25)" fill="#ffb3b1"/>
                  <path id="Tracé_224" data-name="Tracé 224" d="M2660.7,2171.854c.019.478-.851.824-1.431.5A4.3,4.3,0,0,0,2660.7,2171.854Z" transform="translate(-2623.039 -2154.458)" fill="#ff9c9c"/>
                  <path id="Tracé_225" data-name="Tracé 225" d="M2609.662,2156.338c-.74-1.072-1.281-.855-1.585,0s1.217,1.159,1.454,1.8.474,1.138.575.806A14.913,14.913,0,0,0,2609.662,2156.338Z" transform="translate(-2582.315 -2141.549)" fill="#ff9c9c"/>
                  <path id="Tracé_226" data-name="Tracé 226" d="M2809.44,2479.917a26.784,26.784,0,0,1,3.392-.981c1.88-.409,1.074-1.3.738-1.389a12.3,12.3,0,0,0-4.908.316Z" transform="translate(-2741.778 -2397.307)" fill="#ffb3b1"/>
                </g>
              </g>
            </g>
            <g id="Groupe_153" data-name="Groupe 153" transform="translate(185.474 75.265)">
              <g id="Groupe_152" data-name="Groupe 152" clip-path="url(#clip-path-3)">
                <circle id="Ellipse_254" data-name="Ellipse 254" cx="21.367" cy="21.367" r="21.367" fill="#ffe8e9"/>
                <g id="Groupe_151" data-name="Groupe 151" transform="translate(4.57 6.386)">
                  <path id="Tracé_227" data-name="Tracé 227" d="M2813.25,2260c2.067-2.261,7.245-1.2,9.041,0,3.558,2.37,4.663,6.883,3.806,10.513-1.24,5.253,5.851,1.2,6.192,6.742s3.152,1.775,4.806,6.387-.083,8.25-3.969,8.911-19.743,2.944-21.034-2.315-3.585-12.735,0-15.463.917-3.44-.549-6.236C2809.61,2264.853,2812.287,2261.055,2813.25,2260Z" transform="translate(-2802.378 -2258.676)" fill="#213763"/>
                  <path id="Tracé_228" data-name="Tracé 228" d="M2779.375,2376.683c-3.6,3.126-7.625,17.076-7.151,24.127.58,8.637,7.845,8.591,10.622,5.637s7.4-14.556,4.93-22.15S2782.686,2373.807,2779.375,2376.683Z" transform="translate(-2772.187 -2351.604)" fill="#f55070"/>
                  <path id="Tracé_229" data-name="Tracé 229" d="M2804.362,2365.094a54.975,54.975,0,0,1,6.285,6.836c2.536,3.308-2.977,25.69-1.212,31.093,0,0-11.136,4.3-19.185,3.307,0,0,1.409-10.6-3.332-12.915s-3.21-10.2-1.078-15.641a87.632,87.632,0,0,0,3.65-11.56Z" transform="translate(-2781.416 -2343.261)" fill="#ff5375"/>
                  <path id="Tracé_230" data-name="Tracé 230" d="M2819.29,2354.467c-4.821,3.575-15.454,1.246-14.958-2.244s.666-4.573,3.954-5.643c0,0,.457.091,1.213.182a23.092,23.092,0,0,0,7.5-.182,3.966,3.966,0,0,1,1.84.013C2821.814,2347.31,2823.334,2351.466,2819.29,2354.467Z" transform="translate(-2797.723 -2328.465)" fill="#f55070"/>
                  <path id="Tracé_231" data-name="Tracé 231" d="M2827.838,2325.6s1.377-1.763,1.725-5.957c.03-.357.054-.738.063-1.137.025-.562.025-1.165,0-1.8-.21-6.326,5.223-.96,5.223-.96.015.8.024,1.745.073,2.7,0,.094.01.188.02.281a9.052,9.052,0,0,0,1.166,4.522C2837.363,2324.964,2827.838,2325.6,2827.838,2325.6Z" transform="translate(-2816.42 -2302.344)" fill="#ffb3b1"/>
                  <path id="Tracé_232" data-name="Tracé 232" d="M2819.29,2354.859c-4.821,3.575-15.454,1.246-14.958-2.244s.666-4.573,3.954-5.643c-.059.378-.124.744-.2,1.089a.873.873,0,0,0-.229.972c.542,1.448,4.814,2.688,9.727-.118,1.259-.718,1.565-1.363,1.259-1.931C2821.814,2347.7,2823.334,2351.858,2819.29,2354.859Z" transform="translate(-2797.723 -2328.857)" fill="#ff5e7e"/>
                  <path id="Tracé_233" data-name="Tracé 233" d="M2832.01,2394.126c6.42,6.282,8.074,10.141,7.964,21.057s-4.631,22.492-11.026,26.9-14.885,5.4-14.885,5.4l-2.524-5.292s12.795-7.938,14.219-18.3-.78-18.743.874-23.485A10.72,10.72,0,0,1,2832.01,2394.126Z" transform="translate(-2803.466 -2366.337)" fill="#ff5e7e"/>
                  <path id="Tracé_234" data-name="Tracé 234" d="M2787.1,2628.417a11.554,11.554,0,0,0-3.9.591c-.539.29-1.655,1.13-.044,1.225,1.745.1,2.148.767,1.289.932a10.964,10.964,0,0,0-3.567,1.244c-.263.241-.083,2.613,2.738,2.9s6.007-1.6,6.007-1.6Z" transform="translate(-2779.028 -2552.558)" fill="#ffb3b1"/>
                  <path id="Tracé_235" data-name="Tracé 235" d="M2841.946,2319.814a9.555,9.555,0,0,1-2.969.276,3.058,3.058,0,0,1-2.445-1.588c.025-.562.025-1.165,0-1.8-.21-6.326,5.223-.96,5.223-.96.014.8.024,1.745.073,2.7C2841.833,2318.533,2841.936,2319.721,2841.946,2319.814Z" transform="translate(-2823.325 -2302.344)" fill="#ff9c9c"/>
                  <path id="Tracé_236" data-name="Tracé 236" d="M2829.763,2273.108c0,4.4-2.559,7.907-6.265,7.907-3.083,0-4.9-3.506-4.9-7.907,0-1.637-.216-3.514.377-4.78a5.8,5.8,0,0,1,5.2-3.189C2827.264,2265.139,2829.763,2268.707,2829.763,2273.108Z" transform="translate(-2809.046 -2263.813)" fill="#ffb3b1"/>
                  <circle id="Ellipse_255" data-name="Ellipse 255" cx="0.485" cy="0.485" r="0.485" transform="translate(10.317 8.421)" fill="#213763"/>
                  <circle id="Ellipse_256" data-name="Ellipse 256" cx="0.485" cy="0.485" r="0.485" transform="translate(15.125 8.377)" fill="#213763"/>
                  <path id="Tracé_237" data-name="Tracé 237" d="M2818.942,2295.1c-.172.387,1.087.326,1.616.257.162-.021.507-.448-.073-.65A1.488,1.488,0,0,0,2818.942,2295.1Z" transform="translate(-2809.337 -2287.259)" fill="#213763"/>
                  <path id="Tracé_238" data-name="Tracé 238" d="M2844.8,2294.6c.223.448-1.4.358-2.049.274-.181-.023-.65-.522.085-.748A2.047,2.047,0,0,1,2844.8,2294.6Z" transform="translate(-2828.025 -2286.793)" fill="#213763"/>
                  <path id="Tracé_239" data-name="Tracé 239" d="M2829.958,2323.806a3.9,3.9,0,0,0,2.536-.405c.193,0-.026.9-1.157,1.321C2829.834,2325.275,2829.56,2323.69,2829.958,2323.806Z" transform="translate(-2817.975 -2310.122)" fill="#fff"/>
                  <path id="Tracé_240" data-name="Tracé 240" d="M2821.942,2263.3c0,1.435,8.463,4.443,9.37,4.437,0,0-.15,2.275,1.294,2.809s1.487-3.7.264-6.453a6.612,6.612,0,0,0-7.722-3.448C2822.267,2261.663,2821.942,2263.3,2821.942,2263.3Z" transform="translate(-2811.734 -2260.011)" fill="#213763"/>
                  <path id="Tracé_241" data-name="Tracé 241" d="M2868.754,2307.585c2.264,1.012,2.892-1.143,2.263-2.774-.448-1.16-1.4-1.247-1.948-.5S2868.754,2307.585,2868.754,2307.585Z" transform="translate(-2848.903 -2294.566)" fill="#ffb3b1"/>
                  <path id="Tracé_242" data-name="Tracé 242" d="M2873.506,2309.991c.9-.149.826,1.688-.107,1.966Z" transform="translate(-2852.634 -2299.456)" fill="#ff9c9c"/>
                  <path id="Tracé_243" data-name="Tracé 243" d="M2828.665,2314.111c-.02.507.9.875,1.521.534A4.566,4.566,0,0,1,2828.665,2314.111Z" transform="translate(-2817.077 -2302.738)" fill="#ff9c9c"/>
                </g>
              </g>
            </g>
            <path id="Tracé_244" data-name="Tracé 244" d="M2721.853,2212.65c-2.3,0-4.158,2.411-4.158,2.411s-1.862-2.411-4.159-2.411a4.158,4.158,0,0,0-4.158,4.158c0,3.756,6.02,10.768,8.316,10.768s8.316-7.012,8.316-10.768A4.158,4.158,0,0,0,2721.853,2212.65Z" transform="translate(-2532.221 -2140.442)" fill="#f50f0f"/>
          </g>
        </g>
      </g>
    </g>
  </g>
</svg>
