<svg xmlns="http://www.w3.org/2000/svg" xmlns:xlink="http://www.w3.org/1999/xlink" width="286.063" height="266.179" viewBox="0 0 286.063 266.179">
  <defs>
    <clipPath id="clip-path">
      <rect id="Rectangle_36" data-name="Rectangle 36" width="286.063" height="266.179" transform="translate(0 0)" fill="none"/>
    </clipPath>
  </defs>
  <g id="Illustration2" transform="translate(-3570.173 -169.395)">
    <g id="Groupe_96" data-name="Groupe 96" transform="translate(3570.173 169.395)" clip-path="url(#clip-path)">
      <path id="Tracé_52" data-name="Tracé 52" d="M3806.663,493.309c-16.166-18.047-26.041-44.576-24.764-68.771.629-11.929,4.129-24.6,13.479-32.038,5.326-4.235,12.374-6.651,16.017-12.4,3.51-5.538,2.839-12.893.145-18.871s-7.136-10.955-11.191-16.107c-8.036-10.209-14.857-21.689-17.65-34.378s-1.164-26.739,6.419-37.288,21.663-16.7,34.142-13.086c9.1,2.637,17.959,10.021,26.891,6.865,6.409-2.265,9.774-9.106,14.668-13.823,13.28-12.8,37.105-7.3,48.647,7.089s13.435,34.232,12.306,52.644c-.426,6.943-1.205,13.992.252,20.795s5.659,13.486,12.227,15.778c4.321,1.507,9.089.96,13.556,1.951,9.851,2.185,16.826,11.917,17.985,21.94s-2.583,20.075-8.036,28.564c-5.923,9.221-14.276,18.272-13.628,29.213.459,7.787,5.513,14.52,7.438,22.079a28.587,28.587,0,0,1-6.337,25.708c-6.148,6.832-15.841,15.455-24.937,14.136Z" transform="translate(-3729.285 -227.265)" fill="#f097a5"/>
      <g id="Groupe_46" data-name="Groupe 46" transform="translate(99.926 39.207)">
        <path id="Tracé_53" data-name="Tracé 53" d="M4049.243,399.839s1.424-9.127,6.16-8.662.153,9.528.153,9.528Z" transform="translate(-4030.933 -375.635)" fill="#ffbcba"/>
        <g id="Groupe_37" data-name="Groupe 37" transform="translate(2.871 210.278)">
          <path id="Tracé_54" data-name="Tracé 54" d="M4002.6,1196.825h-15.4s-1.16-2.711,0-4.668a13.48,13.48,0,0,0,.849-2.238,60.306,60.306,0,0,0,2.053-9.653l5.119,4.816s-1.2,4.793-.008,5.709l.008.008c1.2.908,5.569,2.865,6.477,3.612A3.6,3.6,0,0,1,4002.6,1196.825Z" transform="translate(-3986.686 -1180.266)" fill="#ffb3b1"/>
          <path id="Tracé_55" data-name="Tracé 55" d="M4001.621,1226.286h-13.808a.863.863,0,0,1-.563-.207.843.843,0,0,1-.258-.4,5.333,5.333,0,0,1,.21-4.062,13.485,13.485,0,0,0,.849-2.238l7.164.871.008.008c1.2.908,5.569,2.865,6.477,3.611a2.574,2.574,0,0,1,.755,1.348A.858.858,0,0,1,4001.621,1226.286Z" transform="translate(-3986.686 -1209.727)" fill="#3b3b3b"/>
          <g id="Groupe_34" data-name="Groupe 34" transform="translate(7.498 10.594)">
            <path id="Tracé_56" data-name="Tracé 56" d="M4017.525,1225.539a.459.459,0,0,1-.329-.781l1.4-1.429a.459.459,0,1,1,.657.642l-1.4,1.429A.457.457,0,0,1,4017.525,1225.539Z" transform="translate(-4017.065 -1223.192)" fill="#fff"/>
          </g>
          <g id="Groupe_35" data-name="Groupe 35" transform="translate(8.896 11.439)">
            <path id="Tracé_57" data-name="Tracé 57" d="M4023.193,1228.964a.459.459,0,0,1-.329-.781l1.4-1.429a.459.459,0,0,1,.657.642l-1.4,1.429A.457.457,0,0,1,4023.193,1228.964Z" transform="translate(-4022.733 -1226.617)" fill="#fff"/>
          </g>
          <g id="Groupe_36" data-name="Groupe 36" transform="translate(10.295 12.284)">
            <path id="Tracé_58" data-name="Tracé 58" d="M4028.861,1232.387a.459.459,0,0,1-.328-.781l1.4-1.429a.459.459,0,1,1,.657.643l-1.4,1.429A.458.458,0,0,1,4028.861,1232.387Z" transform="translate(-4028.402 -1230.04)" fill="#fff"/>
          </g>
          <path id="Tracé_59" data-name="Tracé 59" d="M4002.393,1244.156h-15.182a.527.527,0,0,1-.525-.525h0a.527.527,0,0,1,.525-.525h15.182a.527.527,0,0,1,.525.525h0A.527.527,0,0,1,4002.393,1244.156Z" transform="translate(-3986.686 -1227.597)" fill="#ffe9c9"/>
        </g>
        <g id="Groupe_41" data-name="Groupe 41" transform="translate(25.175 210.278)">
          <path id="Tracé_60" data-name="Tracé 60" d="M4092.977,1196.825h-15.4s-1.16-2.711,0-4.668a13.434,13.434,0,0,0,.849-2.238,60.241,60.241,0,0,0,2.054-9.653l5.118,4.816s-1.2,4.793-.007,5.709l.007.008c1.2.908,5.569,2.865,6.478,3.612A3.6,3.6,0,0,1,4092.977,1196.825Z" transform="translate(-4077.062 -1180.266)" fill="#ffb3b1"/>
          <path id="Tracé_61" data-name="Tracé 61" d="M4092,1226.286h-13.808a.863.863,0,0,1-.563-.207.839.839,0,0,1-.258-.4,5.335,5.335,0,0,1,.209-4.062,13.455,13.455,0,0,0,.85-2.238l7.164.871.007.008c1.2.908,5.569,2.865,6.477,3.611a2.575,2.575,0,0,1,.755,1.348A.858.858,0,0,1,4092,1226.286Z" transform="translate(-4077.062 -1209.727)" fill="#3b3b3b"/>
          <g id="Groupe_38" data-name="Groupe 38" transform="translate(7.498 10.594)">
            <path id="Tracé_62" data-name="Tracé 62" d="M4107.9,1225.539a.459.459,0,0,1-.328-.781l1.4-1.429a.46.46,0,0,1,.658.642l-1.4,1.429A.458.458,0,0,1,4107.9,1225.539Z" transform="translate(-4107.444 -1223.192)" fill="#fff"/>
          </g>
          <g id="Groupe_39" data-name="Groupe 39" transform="translate(8.897 11.439)">
            <path id="Tracé_63" data-name="Tracé 63" d="M4113.572,1228.964a.459.459,0,0,1-.329-.781l1.4-1.429a.459.459,0,1,1,.657.642l-1.4,1.429A.459.459,0,0,1,4113.572,1228.964Z" transform="translate(-4113.112 -1226.617)" fill="#fff"/>
          </g>
          <g id="Groupe_40" data-name="Groupe 40" transform="translate(10.296 12.284)">
            <path id="Tracé_64" data-name="Tracé 64" d="M4119.24,1232.387a.459.459,0,0,1-.329-.781l1.4-1.429a.459.459,0,0,1,.656.643l-1.4,1.429A.457.457,0,0,1,4119.24,1232.387Z" transform="translate(-4118.78 -1230.04)" fill="#fff"/>
          </g>
          <path id="Tracé_65" data-name="Tracé 65" d="M4092.769,1244.156h-15.182a.527.527,0,0,1-.525-.525h0a.526.526,0,0,1,.525-.525h15.182a.527.527,0,0,1,.525.525h0A.527.527,0,0,1,4092.769,1244.156Z" transform="translate(-4077.062 -1227.597)" fill="#ffe9c9"/>
        </g>
        <path id="Tracé_66" data-name="Tracé 66" d="M4083.244,719.185c1.3,10.4,9.4,44.9,5.8,68.87C4083.58,824.361,4074.3,840.1,4074.3,840.1h-8.39s3.517-31.6,2.875-60.778-13.153-55.206-3.193-58.74S4083.244,719.185,4083.244,719.185Z" transform="translate(-4040.358 -622.222)" fill="#002b7c"/>
        <path id="Tracé_67" data-name="Tracé 67" d="M3993.349,711.186c-7.874,12.058-9.272,22.811-9.915,35.984s6.1,42.731,4.495,53.655-3.213,33.735-3.213,33.735h9.222s11.019-35.02,12.947-49.8,1.728-45.944,5.524-56.225a91.188,91.188,0,0,0,4.76-17.349Z" transform="translate(-3981.334 -616.678)" fill="#003bab"/>
        <path id="Tracé_68" data-name="Tracé 68" d="M4153.153,532.4l-3.589,5.613s-13.065.746-24.824-16.943c-.709-1.064-1.418-2.2-2.112-3.4-12.246-21.183-9.782-47.908-2.58-47.007,1.138.14,4.855,4.2,8.763,12.182,3.21,6.56,6.115,17.564,8.8,25.016C4142.289,520.851,4153.153,532.4,4153.153,532.4Z" transform="translate(-4079.741 -435.498)" fill="#5d92f5"/>
        <path id="Tracé_69" data-name="Tracé 69" d="M4031.694,467.1c-1.111,6.57-2.113,11.385-2.113,11.385-8.389,3.721-15.262,4.3-20.555,3.584-8.536-1.158-12.965-5.642-12.965-5.642-3.933-8.049-6.947-38.491-4.889-46.356.828-3.179,1.979-5.849,5.012-7.668a58.32,58.32,0,0,0,12.658-10.7.636.636,0,0,0,.074-.092,9.637,9.637,0,0,0,.882-1.25c.2-.331.386-.662.551-1,2.289-4.75,1.167-10.383,1.167-10.383l1.847.606,4.383,1.443,7.6,2.481a20.342,20.342,0,0,0-.1,4.521,1.869,1.869,0,0,1,.019.221c.074.772.174,1.544.3,2.306.055.312.12.625.184.937a21.872,21.872,0,0,0,.735,2.738,9.928,9.928,0,0,0,1.534,3.023,15.56,15.56,0,0,1,2.472,4.989c.854,2.527,1.838,6.055,3.381,11.311C4035.737,439.9,4033.568,456,4031.694,467.1Z" transform="translate(-3986.692 -381.523)" fill="#ffb3b1"/>
        <path id="Tracé_70" data-name="Tracé 70" d="M4095.32,412.406a5.16,5.16,0,0,1-1.038.634c-4.594,2.113-7.36.046-8.922-2.895a17.965,17.965,0,0,1-2.242-8.711l4.383,1.443,7.6,2.481a20.431,20.431,0,0,0-.1,4.521,1.771,1.771,0,0,1,.019.221C4095.09,410.872,4095.191,411.643,4095.32,412.406Z" transform="translate(-4056.447 -383.374)" fill="#ff9c9c"/>
        <path id="Tracé_71" data-name="Tracé 71" d="M4086.85,350.8c7.153-2.077,6.984,7.351,6.8,10.016s-.178,10.432-4.772,12.546-7.357.043-8.919-2.9a17.791,17.791,0,0,1-2.021-11.486C4078.671,354.107,4084,351.626,4086.85,350.8Z" transform="translate(-4052.378 -345.012)" fill="#ffb3b1"/>
        <path id="Tracé_72" data-name="Tracé 72" d="M4069.226,350.582c-1.471-2.573-4.595-5.973-4.411-9.373s-.686-6.279,3.178-7.464c3.53-1.082,4.633.3,5.92-1.174s3.675-5.973,8.913-3.676,6.524,3.951,6.8,6.34.792,5.588-2.481,5.238-3.951-1.746-5.881-.367-5.054-1.011-6.708-1.286-2.937,1.011-4.407,1.746,1.014,3.531,0,4.706a1.422,1.422,0,0,1-2.152,0Z" transform="translate(-4042.656 -328.255)" fill="#3f1a2e"/>
        <path id="Tracé_73" data-name="Tracé 73" d="M4020.286,750.71c7.693.635,19.447-14.605,20.212-22.949s-21.348-9.837-28.418-8.957S4004.631,749.417,4020.286,750.71Z" transform="translate(-3999.419 -622.249)" fill="#003bab"/>
        <path id="Tracé_74" data-name="Tracé 74" d="M4068.147,386.973c-2.39-1.146-3.308,2.622-3.308,4.827s4.227,4.043,5.146,3.216S4068.147,386.973,4068.147,386.973Z" transform="translate(-4042.68 -372.322)" fill="#ffb3b1"/>
        <g id="Groupe_42" data-name="Groupe 42" transform="translate(30.389 13.909)">
          <path id="Tracé_75" data-name="Tracé 75" d="M4098.877,386.549a.689.689,0,0,1-.348-1.284,5.483,5.483,0,0,1,4.5-.3.689.689,0,0,1-.506,1.282,4.084,4.084,0,0,0-3.3.2A.679.679,0,0,1,4098.877,386.549Z" transform="translate(-4098.187 -384.613)" fill="#3f1a2e"/>
        </g>
        <path id="Tracé_76" data-name="Tracé 76" d="M4034.588,501.516c.35,23.082-2.866,24.524-2.866,24.524a10.955,10.955,0,0,1-2.886.781c-9.574,1.378-27.125-5.283-31.884-5.926-8.536-1.149-.891-9.722-.891-9.722-3.933-8.049-6.947-38.491-4.889-46.356.828-3.179,1.979-5.849,5.012-7.668a51.481,51.481,0,0,0,4.729-3.5,55.284,55.284,0,0,0,7.93-7.2.634.634,0,0,0,.074-.092,9.118,9.118,0,0,0,.753-1.047c.046-.064.092-.138.129-.2,2.4,1.176,9.051,3.8,15.951,1.13a21.875,21.875,0,0,0,.735,2.738,9.928,9.928,0,0,0,1.534,3.023,11.12,11.12,0,0,1,1.553,2.619c.3.68.606,1.461.919,2.37.854,2.527,1.838,6.055,3.381,11.311C4035.737,474.648,4034.413,490.269,4034.588,501.516Z" transform="translate(-3986.692 -416.268)" fill="#6198ff"/>
        <path id="Tracé_77" data-name="Tracé 77" d="M4254.99,720.9c3.895.734,12.441,4.438,5.9,7.437-2.708,1.242-11.643-1.973-11.643-1.973Z" transform="translate(-4181.578 -623.991)" fill="#ffb3b1"/>
        <path id="Tracé_78" data-name="Tracé 78" d="M4124.84,413.048c.023.575-1.024.992-1.722.6A5.163,5.163,0,0,0,4124.84,413.048Z" transform="translate(-4086.576 -392.121)" fill="#ff9c9c"/>
        <path id="Tracé_79" data-name="Tracé 79" d="M4073.838,397.68c-.89-1.29-1.541-1.028-1.907,0s1.465,1.394,1.749,2.167.569,1.369.691.969A17.946,17.946,0,0,0,4073.838,397.68Z" transform="translate(-4047.985 -379.889)" fill="#ff9c9c"/>
        <path id="Tracé_80" data-name="Tracé 80" d="M4273.443,721.624a32.211,32.211,0,0,1,4.081-1.18c2.261-.492,1.292-1.566.887-1.672-2.264-.59-5.9.38-5.9.38Z" transform="translate(-4199.095 -622.249)" fill="#ffb3b1"/>
        <g id="Groupe_43" data-name="Groupe 43" transform="translate(31.544 16.65)">
          <path id="Tracé_81" data-name="Tracé 81" d="M4104.569,396.777a2.063,2.063,0,0,1-1.657-.69.229.229,0,0,1,.367-.276c.034.042.777.961,2.621.212a.229.229,0,1,1,.172.425A3.986,3.986,0,0,1,4104.569,396.777Z" transform="translate(-4102.866 -395.72)" fill="#855151"/>
        </g>
        <path id="Tracé_82" data-name="Tracé 82" d="M4171.586,710.363c-1.014,2.969-3.168,9.833-2.629,11.342,6.087,17.017-.108,57.427-.108,57.427l-5.759-.033c.02-3.6-7.482-40.865-10.975-61.658-.994-5.962-1.666-10.572-1.733-12.645-.309-9.277,9.915-48.826,16.1-62.234,0,0,10.726-12.189,16.227-6.539.383.387.741.773,1.084,1.16,4.632,5.205,5.865,10.659,1.749,33.558C4182.287,688.858,4174.427,702.052,4171.586,710.363Z" transform="translate(-4107.106 -558.939)" fill="#ffb3b1"/>
        <path id="Tracé_83" data-name="Tracé 83" d="M4119.093,425.539a1.407,1.407,0,0,0-2.521.1.42.42,0,0,0,.016.411c.431.567,3.111.567,3.111.567Z" transform="translate(-4081.611 -400.976)" fill="#ff9c9c"/>
        <path id="Tracé_84" data-name="Tracé 84" d="M4072.441,502.133c.349,23.082-2.867,24.524-2.867,24.524a10.945,10.945,0,0,1-2.885.781c1.176-11.816,2.619-23.477,4.5-29.964,0,0,.505-6.717-5.541-8.656-5.384-1.718-5.6-9.556-4.465-16.089-5.1.38-11.409-.319-15.973-7.111-2.5-3.715-4.5-9.73-4.449-13.213a30.769,30.769,0,0,0,5.932-5.34.633.633,0,0,0,.073-.092,9.058,9.058,0,0,0,.753-1.047c.689,3.133,2.508,8.95,6.781,10.236a29.808,29.808,0,0,0,9.575,1.185c.092-.864.129-1.351.129-1.351l3.418-.763c.3.68.606,1.461.919,2.371.854,2.527,1.838,6.055,3.381,11.311C4073.589,475.265,4072.266,490.886,4072.441,502.133Z" transform="translate(-4024.545 -416.885)" fill="#5586e0"/>
        <path id="Tracé_85" data-name="Tracé 85" d="M4174.854,648.916c.8,10.481,6.443,20.608,14.641,24.109s19.967,4.658,24.366-.934-12.179-28.748-16.741-30.431S4174.854,648.916,4174.854,648.916Z" transform="translate(-4125.543 -564.152)" fill="#ffb3b1"/>
        <path id="Tracé_86" data-name="Tracé 86" d="M4150.27,462.911c13.694,4.687,8.906,32,11.941,38.123,0,0-12.513,7.045-22.266,7.256,0,0,.5-6.711-5.543-8.647s-5.586-11.587-3.99-18.433a105.53,105.53,0,0,0,2.347-14.393Z" transform="translate(-4091.292 -429.678)" fill="#ff5375"/>
        <path id="Tracé_87" data-name="Tracé 87" d="M4154.761,455.546c-5.12,5.09-18.182,4.157-18.2-.084s0-5.559,3.73-7.4c0,0,.559.03,1.477.008a27.787,27.787,0,0,0,8.9-1.515,4.78,4.78,0,0,1,2.192-.3C4156.528,446.59,4159.057,451.274,4154.761,455.546Z" transform="translate(-4096.704 -417.111)" fill="#f55070"/>
        <path id="Tracé_88" data-name="Tracé 88" d="M4151.406,432s-2.32-10.3-2.459-11.06c-1.345-7.494,6.051-2.047,6.051-2.047.156.953,4.733,7.733,5.847,8.874C4162.635,429.6,4151.406,432,4151.406,432Z" transform="translate(-4105.907 -395.084)" fill="#ffb3b1"/>
        <path id="Tracé_89" data-name="Tracé 89" d="M4154.761,455.619c-5.12,5.09-18.182,4.157-18.2-.084s0-5.559,3.73-7.4c0,.461-.02.907-.053,1.332a1.049,1.049,0,0,0-.1,1.2c.895,1.63,6.2,2.367,11.559-1.823,1.375-1.072,1.628-1.894,1.165-2.516C4156.528,446.663,4159.057,451.347,4154.761,455.619Z" transform="translate(-4096.704 -417.184)" fill="#ff5e7e"/>
        <path id="Tracé_90" data-name="Tracé 90" d="M4133.512,386.938c-1.635,5.035-5.866,8.1-10.106,6.719-3.527-1.145-4.3-5.832-2.667-10.867.608-1.873,1.059-4.1,2.208-5.328a6.977,6.977,0,0,1,7.139-1.715C4133.612,376.892,4135.147,381.9,4133.512,386.938Z" transform="translate(-4084.166 -363.771)" fill="#ffbcba"/>
        <path id="Tracé_91" data-name="Tracé 91" d="M4179.276,1220.3c-.756,2.065-6.575,4.346-7.152,5.266s-.007,1.38-.007,1.38l7.519.042c1.809.01,3.538-2.6,3.538-2.6l-.015,2.618,1.622.009a14.838,14.838,0,0,0,.872-3.339,10.2,10.2,0,0,0-.615-3.345Z" transform="translate(-4123.293 -1000.145)" fill="#3f1a2e"/>
        <g id="Groupe_44" data-name="Groupe 44" transform="translate(55.471 74.252)">
          <path id="Tracé_92" data-name="Tracé 92" d="M4215.026,630.467c21.786-12.254,14.462,62.551,14.478,62.435,1.936-14.726,45.648-40.023,45.648-40.023l3.643,4.462c-2.632,2.149-24.031,28.452-38.05,44.809-2.813,3.279-5.324,6.16-7.333,8.366-1.657,1.829-2.971,3.185-3.817,3.936-6.957,6.146-14.573-5.848-25.876-28.627C4200.207,678.748,4193.247,642.716,4215.026,630.467Z" transform="translate(-4199.815 -629.111)" fill="#ffb3b1"/>
          <path id="Tracé_93" data-name="Tracé 93" d="M4508.532,717.353c2.074-.732,7.539,2.3,8.614,2.162s1.069-.873,1.069-.873l-4.756-5.825c-1.143-1.4-4.255-1.073-4.255-1.073l2.028-1.655-1.026-1.257a14.872,14.872,0,0,0-3.13,1.455,10.219,10.219,0,0,0-2.187,2.6Z" transform="translate(-4429.597 -689.156)" fill="#3f1a2e"/>
        </g>
        <path id="Tracé_94" data-name="Tracé 94" d="M4181.221,651.427c-.293,18.3-3.761,23.5-4.449,24.687-4.924,8.519-15.361,28.649-25.2,31.712-8.966,2.793-21.341.636-25.943-1.233,2.175-5.613,3.322-16.971,3.638-19.021,1.73-11.259,3.736-50.164,7.853-64.347,0,0,20.27-9.268,22.614-7.492C4166.021,620.507,4181.621,626.442,4181.221,651.427Z" transform="translate(-4088.47 -544.614)" fill="#6198ff"/>
        <path id="Tracé_95" data-name="Tracé 95" d="M4090.888,446.871c-1.423,10.711-10,8.363-23.121,9s-18.531-1.086-24.28-8.453-.637-21.1-.637-21.1l6.313.866s1.23,10.451,7.137,12.231c12.05,3.632,22.454-2.265,28.264-.616S4091.216,444.406,4090.888,446.871Z" transform="translate(-4024.541 -402.121)" fill="#ff5e7e"/>
        <path id="Tracé_96" data-name="Tracé 96" d="M4125.19,362.277c1.009-1.486,4.021-3.117,6.932-3.465,6.008-.719,7.835.61,9.038,1.181,4.645,2.206,4.983,7.854,4.59,12.323-.567,6.469,7.173.418,8.538,6.955s6.316,4.907,8.71,10.293c4.518,10.16-1.819,13.224-6.332,14.684s-19.463,4.049-21.909-1.988c-1.049-2.588-8.911-2.562-8.522-9.243.4-6.927-3.677-6.393.4-11.936,3.211-4.367,3.824-7.639,1.448-8.6C4123.438,370.61,4124.226,363.7,4125.19,362.277Z" transform="translate(-4087.582 -351.114)" fill="#213763"/>
        <path id="Tracé_97" data-name="Tracé 97" d="M4026.392,515.547l2.129,7.222s-45.234,42.6-51.409,15.639c-5.613-24.477,1.158-46.613,9.5-47.713h.007a4.288,4.288,0,0,1,2.312.3c2.88,1.292,4.559,4.862,6.544,9.173,4.73,10.278-1.021,29.122.98,27.707C4006.133,521.021,4026.392,515.547,4026.392,515.547Z" transform="translate(-3975.055 -450.574)" fill="#80acff"/>
        <g id="Groupe_45" data-name="Groupe 45" transform="translate(51.337 59.499)">
          <path id="Tracé_98" data-name="Tracé 98" d="M4183.063,585.261c3.012-2.577,10.327-3.84,8.571,3.136-.728,2.89-6.441,4.087-6.441,4.087Z" transform="translate(-4183.063 -579.786)" fill="#ffb3b1"/>
          <path id="Tracé_99" data-name="Tracé 99" d="M4186.229,575.5a24.65,24.65,0,0,0,2.98-4.3c1.033-2.071-.412-1.988-.748-1.738a55.333,55.333,0,0,0-5.4,5.348Z" transform="translate(-4183.063 -569.333)" fill="#ffb3b1"/>
          <path id="Tracé_100" data-name="Tracé 100" d="M4202.468,578.524c2.688-.782,5-2.272,4.361-3.5s-6.792,2.152-6.792,2.152Z" transform="translate(-4195.848 -573.422)" fill="#ffb3b1"/>
          <path id="Tracé_101" data-name="Tracé 101" d="M4209.274,586.7c2.688-.782,5-2.272,4.361-3.5s-6.791,2.152-6.791,2.152Z" transform="translate(-4200.975 -579.579)" fill="#ffb3b1"/>
          <path id="Tracé_102" data-name="Tracé 102" d="M4207.455,598.939c2.687-.513,5.072-1.748,4.563-3s-6.8,1.467-6.8,1.467Z" transform="translate(-4199.747 -589.127)" fill="#ffb3b1"/>
          <path id="Tracé_103" data-name="Tracé 103" d="M4197.8,610.709c2.687-.513,7.509-.867,7-2.116s-6.25.332-6.25.332Z" transform="translate(-4194.161 -598.542)" fill="#ffb3b1"/>
        </g>
      </g>
      <g id="Groupe_71" data-name="Groupe 71" transform="translate(189.609 198.749)">
        <g id="Groupe_64" data-name="Groupe 64" transform="translate(5.206 19.571)">
          <g id="Groupe_47" data-name="Groupe 47" transform="translate(0 4.584)">
            <path id="Tracé_104" data-name="Tracé 104" d="M4359.532,1120.541c9.127-23.823,58.187-47.736,58.681-47.974l.357.739c-.492.238-49.259,24.009-58.272,47.529Z" transform="translate(-4359.532 -1072.567)" fill="#f3d3d3"/>
          </g>
          <g id="Groupe_48" data-name="Groupe 48" transform="translate(54.116 1.035)">
            <path id="Tracé_105" data-name="Tracé 105" d="M4585.581,1063.8c-2.883,1.745-5.837,2.141-6.6.884s.96-3.69,3.843-5.436,4.384-1.095,5.145.162S4588.465,1062.056,4585.581,1063.8Z" transform="translate(-4578.803 -1058.185)" fill="#f3d3d3"/>
          </g>
          <g id="Groupe_51" data-name="Groupe 51" transform="translate(45.018)">
            <g id="Groupe_49" data-name="Groupe 49">
              <path id="Tracé_106" data-name="Tracé 106" d="M4547.387,1059.211c-.591,3.318-2.244,5.8-3.689,5.541s-2.139-3.156-1.549-6.474,1.845-4.51,3.291-4.253S4547.978,1055.893,4547.387,1059.211Z" transform="translate(-4541.938 -1053.992)" fill="#f3d3d3"/>
            </g>
            <g id="Groupe_50" data-name="Groupe 50" transform="translate(1.77 10.303)">
              <path id="Tracé_107" data-name="Tracé 107" d="M4555.755,1096.237c-3.24-.926-6.194-.532-6.6.88s1.9,3.309,5.136,4.235,4.862.324,5.266-1.088S4559,1097.164,4555.755,1096.237Z" transform="translate(-4549.111 -1095.736)" fill="#f3d3d3"/>
            </g>
          </g>
          <g id="Groupe_54" data-name="Groupe 54" transform="translate(36.607 5.097)">
            <g id="Groupe_52" data-name="Groupe 52">
              <path id="Tracé_108" data-name="Tracé 108" d="M4513.308,1079.864c-.591,3.318-2.242,5.8-3.688,5.541s-2.14-3.156-1.549-6.474,1.845-4.51,3.291-4.253S4513.9,1076.547,4513.308,1079.864Z" transform="translate(-4507.859 -1074.645)" fill="#f3d3d3"/>
            </g>
            <g id="Groupe_53" data-name="Groupe 53" transform="translate(1.77 10.303)">
              <path id="Tracé_109" data-name="Tracé 109" d="M4521.677,1116.891c-3.241-.926-6.195-.532-6.6.88s1.9,3.308,5.137,4.235,4.862.324,5.266-1.088S4524.917,1117.817,4521.677,1116.891Z" transform="translate(-4515.033 -1116.389)" fill="#f3d3d3"/>
            </g>
          </g>
          <g id="Groupe_57" data-name="Groupe 57" transform="translate(28.09 10.49)">
            <g id="Groupe_55" data-name="Groupe 55">
              <path id="Tracé_110" data-name="Tracé 110" d="M4478.768,1101.66c-.511,3.331-2.1,5.851-3.555,5.628s-2.215-3.1-1.7-6.435,1.735-4.553,3.188-4.33S4479.278,1098.328,4478.768,1101.66Z" transform="translate(-4473.35 -1096.497)" fill="#f3d3d3"/>
            </g>
            <g id="Groupe_56" data-name="Groupe 56" transform="translate(1.903 10.25)">
              <path id="Tracé_111" data-name="Tracé 111" d="M4487.676,1138.453c-3.262-.848-6.206-.383-6.576,1.039s1.975,3.262,5.237,4.11,4.868.207,5.238-1.215S4490.938,1139.3,4487.676,1138.453Z" transform="translate(-4481.062 -1138.03)" fill="#f3d3d3"/>
            </g>
          </g>
          <g id="Groupe_60" data-name="Groupe 60" transform="translate(18.738 17.247)">
            <g id="Groupe_58" data-name="Groupe 58">
              <path id="Tracé_112" data-name="Tracé 112" d="M4440.819,1128.912c-.343,3.353-1.807,5.949-3.269,5.8s-2.367-2.99-2.023-6.342,1.505-4.635,2.967-4.484S4441.164,1125.559,4440.819,1128.912Z" transform="translate(-4435.454 -1123.873)" fill="#f3d3d3"/>
            </g>
            <g id="Groupe_59" data-name="Groupe 59" transform="translate(2.196 10.108)">
              <path id="Tracé_113" data-name="Tracé 113" d="M4450.894,1165.111c-3.3-.684-6.217-.072-6.516,1.366s2.136,3.159,5.436,3.844,4.873-.036,5.171-1.475S4454.193,1165.795,4450.894,1165.111Z" transform="translate(-4444.353 -1164.83)" fill="#f3d3d3"/>
            </g>
          </g>
          <g id="Groupe_63" data-name="Groupe 63" transform="translate(11.019 24.033)">
            <g id="Groupe_61" data-name="Groupe 61">
              <path id="Tracé_114" data-name="Tracé 114" d="M4409.545,1156.41c-.344,3.353-1.807,5.949-3.269,5.8s-2.367-2.99-2.023-6.342,1.505-4.634,2.967-4.484S4409.89,1153.057,4409.545,1156.41Z" transform="translate(-4404.181 -1151.37)" fill="#f3d3d3"/>
            </g>
            <g id="Groupe_62" data-name="Groupe 62" transform="translate(2.196 10.109)">
              <path id="Tracé_115" data-name="Tracé 115" d="M4419.62,1192.609c-3.3-.684-6.217-.072-6.515,1.366s2.136,3.159,5.436,3.844,4.873-.037,5.171-1.475S4422.92,1193.293,4419.62,1192.609Z" transform="translate(-4413.08 -1192.328)" fill="#f3d3d3"/>
            </g>
          </g>
        </g>
        <g id="Groupe_70" data-name="Groupe 70">
          <path id="Tracé_116" data-name="Tracé 116" d="M4344.7,1047.009c10.493,2.061,37.825-36.124,28.778-72.314C4346.232,993.223,4328.325,1014.381,4344.7,1047.009Z" transform="translate(-4338.438 -974.695)" fill="#ffd1cc"/>
          <g id="Groupe_65" data-name="Groupe 65" transform="translate(4.601 5.693)">
            <path id="Tracé_117" data-name="Tracé 117" d="M4357.981,1065.825c4.306-17.761,9.709-35.745,17.479-52.306,2.465-5.254,5.227-10.593,9.1-14.96.391-.441-.257-1.093-.65-.65-7.228,8.138-11.354,19.2-15.091,29.254-3.866,10.4-7.117,21.041-10,31.755-.6,2.215-1.186,4.434-1.726,6.663-.14.574.747.819.886.244Z" transform="translate(-4357.081 -997.761)" fill="#ffedee"/>
          </g>
          <g id="Groupe_66" data-name="Groupe 66" transform="translate(18.402 14.419)">
            <path id="Tracé_118" data-name="Tracé 118" d="M4413.025,1033.679l2.794,8.315c.188.558,1.075.319.886-.244l-2.794-8.315c-.187-.558-1.075-.319-.886.244Z" transform="translate(-4412.999 -1033.118)" fill="#ffedee"/>
          </g>
          <g id="Groupe_67" data-name="Groupe 67" transform="translate(17.784 27.709)">
            <path id="Tracé_119" data-name="Tracé 119" d="M4423.717,1086.982l-12.9,3.361a.46.46,0,0,0,.244.886l12.9-3.361a.46.46,0,0,0-.245-.886Z" transform="translate(-4410.495 -1086.965)" fill="#ffedee"/>
          </g>
          <g id="Groupe_68" data-name="Groupe 68" transform="translate(6.152 33.402)">
            <path id="Tracé_120" data-name="Tracé 120" d="M4363.485,1110.832l7.663,8.685c.392.444,1.04-.208.65-.65l-7.664-8.685c-.392-.444-1.04.208-.649.65Z" transform="translate(-4363.364 -1110.034)" fill="#ffedee"/>
          </g>
          <g id="Groupe_69" data-name="Groupe 69" transform="translate(10.844 47.629)">
            <path id="Tracé_121" data-name="Tracé 121" d="M4394.789,1167.7l-12.092,3.629a.46.46,0,0,0,.244.886l12.093-3.629a.46.46,0,0,0-.245-.886Z" transform="translate(-4382.375 -1167.679)" fill="#ffedee"/>
          </g>
        </g>
        <path id="Tracé_122" data-name="Tracé 122" d="M4410.308,1203.115c-11.267,10.339-17.626-2.17-41.323,10.778a30.457,30.457,0,0,1,19.879-17.044C4403.755,1192.9,4410.308,1203.115,4410.308,1203.115Z" transform="translate(-4361.446 -1141.337)" fill="#fdc8c6"/>
      </g>
      <path id="Tracé_123" data-name="Tracé 123" d="M3767.877,1177.5c-18.532-50.543-41.98-32.117-41.98-32.117s10.546,12.309,21.644,15.27S3767.877,1177.5,3767.877,1177.5Z" transform="translate(-3687.464 -902.042)" fill="#fdc8c6"/>
      <g id="Groupe_89" data-name="Groupe 89" transform="translate(36.971 209.604)">
        <g id="Groupe_72" data-name="Groupe 72" transform="translate(3.929 4.247)">
          <path id="Tracé_124" data-name="Tracé 124" d="M3778.307,1099.078c-1.668-25.458-41.453-62.818-41.854-63.192l-.56.6c.4.373,39.947,37.512,41.595,62.646Z" transform="translate(-3735.893 -1035.886)" fill="#f3d3d3"/>
        </g>
        <g id="Groupe_73" data-name="Groupe 73">
          <path id="Tracé_125" data-name="Tracé 125" d="M3721.736,1024.242c2.238,2.521,4.943,3.773,6.042,2.8s.175-3.809-2.062-6.33-3.864-2.343-4.963-1.368S3719.5,1021.722,3721.736,1024.242Z" transform="translate(-3719.974 -1018.676)" fill="#f3d3d3"/>
        </g>
        <g id="Groupe_76" data-name="Groupe 76" transform="translate(2.836 2.89)">
          <g id="Groupe_74" data-name="Groupe 74" transform="translate(9.205)">
            <path id="Tracé_126" data-name="Tracé 126" d="M3768.865,1034.782c-.417,3.344.426,6.2,1.884,6.385s2.978-2.382,3.4-5.726-.426-4.854-1.884-5.036S3769.283,1031.438,3768.865,1034.782Z" transform="translate(-3768.759 -1030.388)" fill="#f3d3d3"/>
          </g>
          <g id="Groupe_75" data-name="Groupe 75" transform="translate(0 8.848)">
            <path id="Tracé_127" data-name="Tracé 127" d="M3736.288,1066.241c3.37.074,6.075,1.325,6.042,2.794s-2.79,2.6-6.16,2.525-4.74-1.13-4.708-2.6S3732.918,1066.167,3736.288,1066.241Z" transform="translate(-3731.463 -1066.238)" fill="#f3d3d3"/>
          </g>
        </g>
        <g id="Groupe_79" data-name="Groupe 79" transform="translate(9.361 10.248)">
          <g id="Groupe_77" data-name="Groupe 77" transform="translate(9.205)">
            <path id="Tracé_128" data-name="Tracé 128" d="M3795.3,1064.6c-.417,3.344.426,6.2,1.884,6.385s2.978-2.382,3.4-5.726-.427-4.854-1.885-5.036S3795.722,1061.251,3795.3,1064.6Z" transform="translate(-3795.198 -1060.201)" fill="#f3d3d3"/>
          </g>
          <g id="Groupe_78" data-name="Groupe 78" transform="translate(0 8.848)">
            <path id="Tracé_129" data-name="Tracé 129" d="M3762.727,1096.055c3.369.074,6.074,1.325,6.042,2.794s-2.79,2.6-6.159,2.525-4.74-1.129-4.708-2.6S3759.357,1095.981,3762.727,1096.055Z" transform="translate(-3757.901 -1096.052)" fill="#f3d3d3"/>
          </g>
        </g>
        <g id="Groupe_82" data-name="Groupe 82" transform="translate(15.775 17.951)">
          <g id="Groupe_80" data-name="Groupe 80" transform="translate(9.333)">
            <path id="Tracé_130" data-name="Tracé 130" d="M3821.855,1095.73c-.5,3.333.277,6.211,1.729,6.428s3.034-2.309,3.532-5.643-.31-4.863-1.762-5.08S3822.353,1092.4,3821.855,1095.73Z" transform="translate(-3821.705 -1091.411)" fill="#f3d3d3"/>
          </g>
          <g id="Groupe_81" data-name="Groupe 81" transform="translate(0 8.654)">
            <path id="Tracé_131" data-name="Tracé 131" d="M3788.781,1126.486c3.367.155,6.042,1.471,5.974,2.938s-2.852,2.531-6.218,2.376-4.711-1.243-4.644-2.711S3785.415,1126.331,3788.781,1126.486Z" transform="translate(-3783.89 -1126.474)" fill="#f3d3d3"/>
          </g>
        </g>
        <g id="Groupe_85" data-name="Groupe 85" transform="translate(22.452 27.231)">
          <g id="Groupe_83" data-name="Groupe 83" transform="translate(9.563)">
            <path id="Tracé_132" data-name="Tracé 132" d="M3849.956,1133.17c-.664,3.3-.034,6.217,1.406,6.507s3.146-2.155,3.81-5.459-.066-4.872-1.507-5.162S3850.619,1129.865,3849.956,1133.17Z" transform="translate(-3849.692 -1129.011)" fill="#f3d3d3"/>
          </g>
          <g id="Groupe_84" data-name="Groupe 84" transform="translate(0 8.218)">
            <path id="Tracé_133" data-name="Tracé 133" d="M3815.969,1162.363c3.354.323,5.96,1.771,5.819,3.233s-2.974,2.386-6.329,2.063-4.644-1.477-4.5-2.939S3812.615,1162.039,3815.969,1162.363Z" transform="translate(-3810.946 -1162.31)" fill="#f3d3d3"/>
          </g>
        </g>
        <g id="Groupe_88" data-name="Groupe 88" transform="translate(27.816 35.998)">
          <g id="Groupe_86" data-name="Groupe 86" transform="translate(9.563)">
            <path id="Tracé_134" data-name="Tracé 134" d="M3871.691,1168.692c-.664,3.3-.034,6.217,1.406,6.507s3.146-2.155,3.81-5.459-.067-4.872-1.507-5.162S3872.355,1165.387,3871.691,1168.692Z" transform="translate(-3871.427 -1164.533)" fill="#f3d3d3"/>
          </g>
          <g id="Groupe_87" data-name="Groupe 87" transform="translate(0 8.218)">
            <path id="Tracé_135" data-name="Tracé 135" d="M3837.7,1197.885c3.355.323,5.96,1.771,5.819,3.233s-2.975,2.386-6.33,2.063-4.644-1.477-4.5-2.939S3834.349,1197.561,3837.7,1197.885Z" transform="translate(-3832.681 -1197.832)" fill="#f3d3d3"/>
          </g>
        </g>
      </g>
      <g id="Groupe_95" data-name="Groupe 95" transform="translate(57.259 190.081)">
        <path id="Tracé_136" data-name="Tracé 136" d="M3823.921,1027.836s-32.085-50.076-18.307-88.263C3805.614,939.573,3836.775,964.4,3823.921,1027.836Z" transform="translate(-3802.176 -939.573)" fill="#ffd1cc"/>
        <g id="Groupe_90" data-name="Groupe 90" transform="translate(5.615 10.606)">
          <path id="Tracé_137" data-name="Tracé 137" d="M3824.942,983.117q6.464,26.377,11.709,53.049c1.443,7.349,2.8,14.717,3.974,22.115.092.582.978.335.886-.244-3.708-23.311-8.85-46.414-14.293-69.375q-.686-2.9-1.39-5.789c-.141-.574-1.027-.331-.886.244Z" transform="translate(-3824.927 -982.545)" fill="#ffedee"/>
        </g>
        <g id="Groupe_91" data-name="Groupe 91" transform="translate(10.02 21.266)">
          <path id="Tracé_138" data-name="Tracé 138" d="M3847.295,1025.966l-4.458,8.111c-.285.519.508.983.793.464l4.459-8.111c.285-.519-.508-.983-.793-.464Z" transform="translate(-3842.775 -1025.739)" fill="#ffedee"/>
        </g>
        <g id="Groupe_92" data-name="Groupe 92" transform="translate(3.57 33.588)">
          <path id="Tracé_139" data-name="Tracé 139" d="M3816.871,1076.516l8.375,4.408c.523.275.988-.518.464-.794l-8.375-4.408c-.523-.275-.988.518-.463.793Z" transform="translate(-3816.641 -1075.665)" fill="#ffedee"/>
        </g>
        <g id="Groupe_93" data-name="Groupe 93" transform="translate(14.55 42.022)">
          <path id="Tracé_140" data-name="Tracé 140" d="M3866.229,1110.056l-5.029,8.075c-.314.5.481.965.793.464l5.028-8.075c.314-.5-.48-.965-.793-.464Z" transform="translate(-3861.128 -1109.839)" fill="#ffedee"/>
        </g>
        <g id="Groupe_94" data-name="Groupe 94" transform="translate(8.942 53.957)">
          <path id="Tracé_141" data-name="Tracé 141" d="M3838.637,1159.05l6.588,3.467c.522.275.988-.517.463-.793l-6.587-3.467c-.523-.275-.988.518-.464.793Z" transform="translate(-3838.407 -1158.199)" fill="#ffedee"/>
        </g>
      </g>
    </g>
  </g>
</svg>
