<svg xmlns="http://www.w3.org/2000/svg" xmlns:xlink="http://www.w3.org/1999/xlink" width="121.365" height="131.849" viewBox="0 0 121.365 131.849">
  <defs>
    <filter id="Tracé_4" x="0" y="19.753" width="121.365" height="112.096" filterUnits="userSpaceOnUse">
      <feOffset dy="3" input="SourceAlpha"/>
      <feGaussianBlur stdDeviation="15.5" result="blur"/>
      <feFlood flood-opacity="0.161"/>
      <feComposite operator="in" in2="blur"/>
      <feComposite in="SourceGraphic"/>
    </filter>
    <filter id="Tracé_5" x="3.66" y="0" width="114.044" height="114.036" filterUnits="userSpaceOnUse">
      <feOffset dy="3" input="SourceAlpha"/>
      <feGaussianBlur stdDeviation="15.5" result="blur-2"/>
      <feFlood flood-opacity="0.161"/>
      <feComposite operator="in" in2="blur-2"/>
      <feComposite in="SourceGraphic"/>
    </filter>
  </defs>
  <g id="profil" transform="translate(-28.055 -32.824)">
    <g transform="matrix(1, 0, 0, 1, 28.06, 32.82)" filter="url(#Tracé_4)">
      <path id="Tracé_4-2" data-name="Tracé 4" d="M95.631,103.865a10.973,10.973,0,0,1-13.785,0,9.735,9.735,0,0,0-6.291,9.1v4.348a3.509,3.509,0,0,0,3.509,3.509H98.41a3.509,3.509,0,0,0,3.51-3.509v-4.348A9.735,9.735,0,0,0,95.631,103.865Z" transform="translate(-28.06 -39.47)" fill="none" stroke="#fff" stroke-miterlimit="10" stroke-width="2"/>
    </g>
    <g transform="matrix(1, 0, 0, 1, 28.06, 32.82)" filter="url(#Tracé_5)">
      <path id="Tracé_5-2" data-name="Tracé 5" d="M81.407,84.523a9.514,9.514,0,0,0,2.088,10.482,9.588,9.588,0,0,0,1.593,1.257,9.5,9.5,0,1,0-3.681-11.74Z" transform="translate(-29.5 -34.21)" fill="none" stroke="#fff" stroke-miterlimit="10" stroke-width="2"/>
    </g>
  </g>
</svg>
